<svg xmlns="http://www.w3.org/2000/svg" xmlns:inkscape="http://www.inkscape.org/namespaces/inkscape" xmlns:sodipodi="http://sodipodi.sourceforge.net/DTD/sodipodi-0.dtd" version="1.1" inkscape:version="1.4.2" width="1024pt" height="1024pt" viewBox="0 0 1024 1024">
<title id="tt">ZEROSPLOIT</title>
<defs id="zsdefs"><linearGradient id="g_wifi" x1="0" y1="0" x2="0" y2="1"><stop offset="0" stop-color="#FFE253"/><stop offset="0.45" stop-color="#FFD60A"/><stop offset="1" stop-color="#9E8406"/></linearGradient><filter id="sh1" x="-60%" y="-60%" width="220%" height="220%" color-interpolation-filters="sRGB"><feGaussianBlur in="SourceAlpha" stdDeviation="30.72" result="b"/><feOffset in="b" dx="0" dy="12.288" result="o"/><feFlood flood-color="#000000" flood-opacity="0.42"/><feComposite in2="o" operator="in" result="s"/><feMerge><feMergeNode in="s"/><feMergeNode in="SourceGraphic"/></feMerge></filter><linearGradient id="h_wifi" x1="0" y1="0" x2="0" y2="1"><stop offset="0" stop-color="#FFFFFF" stop-opacity="0.3"/><stop offset="0.55" stop-color="#FFFFFF" stop-opacity="0.03"/><stop offset="1" stop-color="#FFFFFF" stop-opacity="0.0"/></linearGradient></defs>
<rect x="0" y="0" width="1024" height="1024" rx="229.069" ry="229.069" fill="url(#g_wifi)" filter="url(#sh1)"/>
<rect x="20.48" y="20.48" width="983.04" height="983.04" rx="229.069" ry="229.069" fill="url(#h_wifi)"/>
<path d="M 423.32 573.44 A 102.40 102.40 0 0 1 600.68 573.44" fill="none" stroke="#FFFFFF" stroke-width="41.472" stroke-linecap="round" stroke-linejoin="round"/>
<path d="M 352.37 532.48 A 184.32 184.32 0 0 1 671.63 532.48" fill="none" stroke="#FFFFFF" stroke-width="41.472" stroke-linecap="round" stroke-linejoin="round"/>
<path d="M 281.43 491.52 A 266.24 266.24 0 0 1 742.57 491.52" fill="none" stroke="#FFFFFF" stroke-width="41.472" stroke-linecap="round" stroke-linejoin="round"/>
<circle cx="512" cy="645.12" r="25.6" fill="#FFFFFF"/>
<line x1="296.96" y1="296.96" x2="727.04" y2="727.04" stroke="#FFFFFF" stroke-width="51.84" stroke-linecap="butt"/>
</svg>
