<svg xmlns="http://www.w3.org/2000/svg" xmlns:inkscape="http://www.inkscape.org/namespaces/inkscape" xmlns:sodipodi="http://sodipodi.sourceforge.net/DTD/sodipodi-0.dtd" version="1.1" inkscape:version="1.4.2" width="393pt" height="852pt" viewBox="0 0 393 852">
<title id="tt">ZEROSPLOIT</title>
<sodipodi:namedview id="nv" inkscape:document-units="pt" pagecolor="#000000" bordercolor="#666666" inkscape:pagecheckerboard="false" inkscape:zoom="0.5" inkscape:cx="196" inkscape:cy="426"/>
<defs id="zsdefs"><linearGradient id="grad1" x1="0" y1="0" x2="0" y2="1"><stop offset="0" stop-color="#1C1C1E" stop-opacity="0.0"/><stop offset="0.5" stop-color="#1C1C1E" stop-opacity="0.92"/><stop offset="1" stop-color="#1C1C1E" stop-opacity="1.0"/></linearGradient><filter id="sh2" x="-60%" y="-60%" width="220%" height="220%" color-interpolation-filters="sRGB"><feGaussianBlur in="SourceAlpha" stdDeviation="20" result="b"/><feOffset in="b" dx="0" dy="8" result="o"/><feFlood flood-color="#000000" flood-opacity="0.5"/><feComposite in2="o" operator="in" result="s"/><feMerge><feMergeNode in="s"/><feMergeNode in="SourceGraphic"/></feMerge></filter><linearGradient id="rc" x1="0" y1="0" x2="0" y2="1"><stop offset="0" stop-color="#1C1C1E"/><stop offset="1" stop-color="#101012"/></linearGradient></defs>
<rect x="0" y="0" width="393" height="852" rx="0" ry="0" fill="#000000"/>
<text x="29" y="35" font-family="'SF Pro Display','SF Pro Text',-apple-system,'Helvetica Neue',Inter,'Segoe UI',sans-serif" font-size="15" font-weight="600" fill="#FFFFFF" text-anchor="start" letter-spacing="0" xml:space="preserve">9:41</text>
<rect x="126" y="11" width="141" height="37" rx="19" ry="19" fill="#000"/>
<circle cx="213" cy="29.5" r="4.5" fill="#1C1C1E"/>
<rect x="288" y="31" width="3.4" height="4" rx="1.1" ry="1.1" fill="#FFFFFF"/>
<rect x="293" y="28.5" width="3.4" height="6.5" rx="1.1" ry="1.1" fill="#FFFFFF"/>
<rect x="298" y="26" width="3.4" height="9" rx="1.1" ry="1.1" fill="#FFFFFF"/>
<rect x="303" y="23.5" width="3.4" height="11.5" rx="1.1" ry="1.1" fill="#FFFFFF"/>
<path d="M 325.8 27.5 A 6.4 6.4 0 0 1 332.2 27.5" fill="none" stroke="#FFFFFF" stroke-width="1.7" stroke-linecap="round" stroke-linejoin="round"/>
<path d="M 322.4 27.7 A 13.2 13.2 0 0 1 335.6 27.5" fill="none" stroke="#FFFFFF" stroke-width="1.7" stroke-linecap="round" stroke-linejoin="round"/>
<path d="M 319 27.9 A 20 20 0 0 1 339 27.5" fill="none" stroke="#FFFFFF" stroke-width="1.7" stroke-linecap="round" stroke-linejoin="round"/>
<circle cx="329" cy="32.2" r="1.5" fill="#FFFFFF"/>
<rect x="340" y="24" width="22" height="11" rx="3.4" ry="3.4" fill="none" stroke="#FFFFFF" stroke-width="1" opacity="0.4"/>
<rect x="342" y="26" width="14" height="7" rx="2" ry="2" fill="#FFFFFF"/>
<rect x="363.5" y="27.4" width="1.6" height="4.2" rx="0.8" ry="0.8" fill="#FFFFFF" opacity="0.4"/>
<text x="20" y="82" font-family="'SF Pro Display','SF Pro Text',-apple-system,'Helvetica Neue',Inter,'Segoe UI',sans-serif" font-size="34" font-weight="700" fill="#FFFFFF" text-anchor="start" letter-spacing="-0.4" xml:space="preserve">Capability</text>
<rect x="0" y="763" width="393" height="89" rx="0" ry="0" fill="#000000"/>
<rect x="0" y="769" width="393" height="49" rx="0" ry="0" fill="url(#grad1)"/>
<line x1="0" y1="769" x2="393" y2="769" stroke="rgba(84,84,88,0.65)" stroke-width="0.5" stroke-linecap="butt"/>
<circle cx="39.3" cy="789" r="8.58" fill="none" stroke="rgba(235,235,245,0.30)" stroke-width="1.6"/>
<circle cx="39.3" cy="789" r="3.96" fill="none" stroke="rgba(235,235,245,0.30)" stroke-width="1.6" opacity="0.75"/>
<line x1="39.3" y1="789" x2="45.46" y2="782.84" stroke="rgba(235,235,245,0.30)" stroke-width="1.6" stroke-linecap="butt"/>
<text x="39.3" y="811" font-family="'SF Pro Display','SF Pro Text',-apple-system,'Helvetica Neue',Inter,'Segoe UI',sans-serif" font-size="11" font-weight="500" fill="rgba(235,235,245,0.30)" text-anchor="middle" letter-spacing="0.1" xml:space="preserve">Scan</text>
<rect x="108.55" y="780.75" width="10.45" height="11.55" rx="2" ry="2" fill="none" stroke="rgba(235,235,245,0.30)" stroke-width="1.6"/>
<rect x="119.55" y="785.7" width="7.7" height="13.2" rx="2" ry="2" fill="none" stroke="rgba(235,235,245,0.30)" stroke-width="1.6"/>
<text x="117.9" y="811" font-family="'SF Pro Display','SF Pro Text',-apple-system,'Helvetica Neue',Inter,'Segoe UI',sans-serif" font-size="11" font-weight="500" fill="rgba(235,235,245,0.30)" text-anchor="middle" letter-spacing="0.1" xml:space="preserve">Targets</text>
<rect x="186.6" y="780.75" width="19.8" height="16.5" rx="2.6" ry="2.6" fill="none" stroke="rgba(235,235,245,0.30)" stroke-width="1.6"/>
<polygon points="191.55,786.8 195.95,789.88 191.55,792.96" fill="none" stroke="rgba(235,235,245,0.30)" stroke-width="1.6" stroke-linejoin="round" stroke-linecap="round"/>
<line x1="197.05" y1="792.96" x2="202" y2="792.96" stroke="rgba(235,235,245,0.30)" stroke-width="1.6" stroke-linecap="butt"/>
<text x="196.5" y="811" font-family="'SF Pro Display','SF Pro Text',-apple-system,'Helvetica Neue',Inter,'Segoe UI',sans-serif" font-size="11" font-weight="500" fill="rgba(235,235,245,0.30)" text-anchor="middle" letter-spacing="0.1" xml:space="preserve">Sessions</text>
<line x1="265.2" y1="797.25" x2="265.2" y2="782.4" stroke="rgba(235,235,245,0.30)" stroke-width="1.6" stroke-linecap="butt"/>
<line x1="270.15" y1="797.25" x2="270.15" y2="789" stroke="rgba(235,235,245,0.30)" stroke-width="1.6" stroke-linecap="butt"/>
<line x1="275.1" y1="797.25" x2="275.1" y2="777.45" stroke="rgba(235,235,245,0.30)" stroke-width="1.6" stroke-linecap="butt"/>
<line x1="280.05" y1="797.25" x2="280.05" y2="786.525" stroke="rgba(235,235,245,0.30)" stroke-width="1.6" stroke-linecap="butt"/>
<line x1="285" y1="797.25" x2="285" y2="780.75" stroke="rgba(235,235,245,0.30)" stroke-width="1.6" stroke-linecap="butt"/>
<text x="275.1" y="811" font-family="'SF Pro Display','SF Pro Text',-apple-system,'Helvetica Neue',Inter,'Segoe UI',sans-serif" font-size="11" font-weight="500" fill="rgba(235,235,245,0.30)" text-anchor="middle" letter-spacing="0.1" xml:space="preserve">Logs</text>
<circle cx="353.7" cy="789" r="4.62" fill="none" stroke="#0A84FF" stroke-width="1.7"/>
<line x1="360.52" y1="789" x2="363.6" y2="789" stroke="#0A84FF" stroke-width="1.5" stroke-linecap="butt"/>
<line x1="358.522" y1="793.822" x2="360.7" y2="796" stroke="#0A84FF" stroke-width="1.5" stroke-linecap="butt"/>
<line x1="353.7" y1="795.82" x2="353.7" y2="798.9" stroke="#0A84FF" stroke-width="1.5" stroke-linecap="butt"/>
<line x1="348.878" y1="793.822" x2="346.7" y2="796" stroke="#0A84FF" stroke-width="1.5" stroke-linecap="butt"/>
<line x1="346.88" y1="789" x2="343.8" y2="789" stroke="#0A84FF" stroke-width="1.5" stroke-linecap="butt"/>
<line x1="348.878" y1="784.178" x2="346.7" y2="782" stroke="#0A84FF" stroke-width="1.5" stroke-linecap="butt"/>
<line x1="353.7" y1="782.18" x2="353.7" y2="779.1" stroke="#0A84FF" stroke-width="1.5" stroke-linecap="butt"/>
<line x1="358.522" y1="784.178" x2="360.7" y2="782" stroke="#0A84FF" stroke-width="1.5" stroke-linecap="butt"/>
<text x="353.7" y="811" font-family="'SF Pro Display','SF Pro Text',-apple-system,'Helvetica Neue',Inter,'Segoe UI',sans-serif" font-size="11" font-weight="500" fill="#0A84FF" text-anchor="middle" letter-spacing="0.1" xml:space="preserve">Settings</text>
<rect x="129.5" y="840" width="134" height="5" rx="2.5" ry="2.5" fill="#FFFFFF" opacity="0.92"/>
<rect x="20" y="118" width="353" height="110" rx="24" ry="24" fill="url(#rc)" filter="url(#sh2)"/>
<circle cx="64" cy="162" r="24" fill="#FF9F0A" opacity="0.2"/>
<rect x="55.68" y="160.44" width="16.64" height="12.48" rx="4" ry="4" fill="none" stroke="#FF9F0A" stroke-width="2.0"/>
<path d="M 59.06 160.44 L 59.06 155.24 A 4.94 4.94 0 0 1 68.94 155.24" fill="none" stroke="#FF9F0A" stroke-width="2.0" stroke-linecap="round" stroke-linejoin="round"/>
<circle cx="64" cy="166.68" r="1.43" fill="#FF9F0A"/>
<text x="100" y="156" font-family="'SF Pro Display','SF Pro Text',-apple-system,'Helvetica Neue',Inter,'Segoe UI',sans-serif" font-size="20" font-weight="600" fill="#FFFFFF" text-anchor="start" letter-spacing="-0.24" xml:space="preserve">Root not granted</text>
<text x="100" y="176" font-family="'SF Pro Display','SF Pro Text',-apple-system,'Helvetica Neue',Inter,'Segoe UI',sans-serif" font-size="13" font-weight="400" fill="rgba(235,235,245,0.60)" text-anchor="start" letter-spacing="-0.08" xml:space="preserve">su binary not available to app</text>
<rect x="311" y="150" width="51" height="31" rx="15.5" ry="15.5" fill="rgba(120,120,128,0.24)"/>
<circle cx="326.5" cy="165.5" r="13.5" fill="#FFFFFF"/>
<text x="353" y="218" font-family="'SF Pro Display','SF Pro Text',-apple-system,'Helvetica Neue',Inter,'Segoe UI',sans-serif" font-size="11" font-weight="400" fill="rgba(235,235,245,0.30)" text-anchor="end" letter-spacing="0.8" xml:space="preserve">TAP TO REQUEST</text>
<text x="20" y="226" font-family="'SF Pro Display','SF Pro Text',-apple-system,'Helvetica Neue',Inter,'Segoe UI',sans-serif" font-size="11" font-weight="400" fill="rgba(235,235,245,0.60)" text-anchor="start" letter-spacing="0.6" xml:space="preserve">ENGINE CAPABILITIES</text>
<rect x="20" y="256" width="353" height="360" rx="18" ry="18" fill="#1C1C1E"/>
<g transform="translate(20,261.00)">
<rect x="0" y="10" width="30" height="30" rx="7.5" ry="7.5" fill="#FF9F0A" opacity="0.9"/>
<circle cx="15" cy="18.92" r="2.09" fill="none" stroke="#FFFFFF" stroke-width="1.425"/>
<circle cx="8.54" cy="30.7" r="2.09" fill="none" stroke="#FFFFFF" stroke-width="1.425"/>
<circle cx="21.46" cy="30.7" r="2.09" fill="none" stroke="#FFFFFF" stroke-width="1.425"/>
<line x1="15" y1="21.01" x2="9.87" y2="29.18" stroke="#FFFFFF" stroke-width="1.14" stroke-linecap="butt"/>
<line x1="15" y1="21.01" x2="20.13" y2="29.18" stroke="#FFFFFF" stroke-width="1.14" stroke-linecap="butt"/>
<line x1="10.63" y1="30.7" x2="19.37" y2="30.7" stroke="#FFFFFF" stroke-width="1.14" stroke-linecap="butt"/>
<text x="353" y="29.5" font-family="'SF Mono',ui-monospace,'SF Mono Text',Menlo,'Roboto Mono','DejaVu Sans Mono',monospace" font-size="13" font-weight="400" fill="#30D158" text-anchor="end" letter-spacing="0.2" xml:space="preserve">READY</text>
<text x="42" y="24" font-family="'SF Pro Display','SF Pro Text',-apple-system,'Helvetica Neue',Inter,'Segoe UI',sans-serif" font-size="17" font-weight="400" fill="#FFFFFF" text-anchor="start" letter-spacing="-0.41" xml:space="preserve">Subnet discovery</text>
<text x="42" y="39" font-family="'SF Pro Display','SF Pro Text',-apple-system,'Helvetica Neue',Inter,'Segoe UI',sans-serif" font-size="13" font-weight="400" fill="rgba(235,235,245,0.60)" text-anchor="start" letter-spacing="-0.08" xml:space="preserve">ARP + TCP + UDP sweep</text>
</g>
<line x1="36" y1="311" x2="357" y2="311" stroke="rgba(84,84,88,0.65)" stroke-width="0.5" stroke-linecap="butt"/>
<g transform="translate(20,311.00)">
<rect x="0" y="10" width="30" height="30" rx="7.5" ry="7.5" fill="#FF9F0A" opacity="0.9"/>
<circle cx="15" cy="25" r="7.6" fill="none" stroke="#FFFFFF" stroke-width="1.425"/>
<circle cx="15" cy="25" r="3.8" fill="none" stroke="#FFFFFF" stroke-width="1.425" opacity="0.7"/>
<line x1="15" y1="25" x2="20.32" y2="19.68" stroke="#FFFFFF" stroke-width="1.425" stroke-linecap="butt"/>
<circle cx="15" cy="25" r="0.855" fill="#FFFFFF"/>
<text x="353" y="29.5" font-family="'SF Mono',ui-monospace,'SF Mono Text',Menlo,'Roboto Mono','DejaVu Sans Mono',monospace" font-size="13" font-weight="400" fill="#30D158" text-anchor="end" letter-spacing="0.2" xml:space="preserve">READY</text>
<text x="42" y="24" font-family="'SF Pro Display','SF Pro Text',-apple-system,'Helvetica Neue',Inter,'Segoe UI',sans-serif" font-size="17" font-weight="400" fill="#FFFFFF" text-anchor="start" letter-spacing="-0.41" xml:space="preserve">TCP port scanner</text>
<text x="42" y="39" font-family="'SF Pro Display','SF Pro Text',-apple-system,'Helvetica Neue',Inter,'Segoe UI',sans-serif" font-size="13" font-weight="400" fill="rgba(235,235,245,0.60)" text-anchor="start" letter-spacing="-0.08" xml:space="preserve">connect() based, no root</text>
</g>
<line x1="36" y1="361" x2="357" y2="361" stroke="rgba(84,84,88,0.65)" stroke-width="0.5" stroke-linecap="butt"/>
<g transform="translate(20,361.00)">
<rect x="0" y="10" width="30" height="30" rx="7.5" ry="7.5" fill="#FF9F0A" opacity="0.9"/>
<path d="M 11.77 20.82 L 16.14 20.82 L 17.66 22.34 L 17.66 26.52 L 11.77 26.52 Z" fill="none" stroke="#FFFFFF" stroke-width="1.425" stroke-linecap="round" stroke-linejoin="round"/>
<line x1="11.58" y1="20.06" x2="15.95" y2="20.06" stroke="#FFFFFF" stroke-width="1.14" stroke-linecap="butt"/>
<line x1="11.58" y1="23.48" x2="15.95" y2="23.48" stroke="#FFFFFF" stroke-width="1.14" stroke-linecap="butt"/>
<circle cx="18.04" cy="28.8" r="3.61" fill="none" stroke="#FFFFFF" stroke-width="1.425"/>
<line x1="20.7" y1="31.46" x2="23.36" y2="34.12" stroke="#FFFFFF" stroke-width="1.5675" stroke-linecap="butt"/>
<text x="353" y="29.5" font-family="'SF Mono',ui-monospace,'SF Mono Text',Menlo,'Roboto Mono','DejaVu Sans Mono',monospace" font-size="13" font-weight="400" fill="#30D158" text-anchor="end" letter-spacing="0.2" xml:space="preserve">READY</text>
<text x="42" y="24" font-family="'SF Pro Display','SF Pro Text',-apple-system,'Helvetica Neue',Inter,'Segoe UI',sans-serif" font-size="17" font-weight="400" fill="#FFFFFF" text-anchor="start" letter-spacing="-0.41" xml:space="preserve">Banner &amp; service ID</text>
<text x="42" y="39" font-family="'SF Pro Display','SF Pro Text',-apple-system,'Helvetica Neue',Inter,'Segoe UI',sans-serif" font-size="13" font-weight="400" fill="rgba(235,235,245,0.60)" text-anchor="start" letter-spacing="-0.08" xml:space="preserve">fingerprint database</text>
</g>
<line x1="36" y1="411" x2="357" y2="411" stroke="rgba(84,84,88,0.65)" stroke-width="0.5" stroke-linecap="butt"/>
<g transform="translate(20,411.00)">
<rect x="0" y="10" width="30" height="30" rx="7.5" ry="7.5" fill="#FF9F0A" opacity="0.9"/>
<ellipse cx="15" cy="25.38" rx="4.18" ry="5.7" fill="none" stroke="#FFFFFF" stroke-width="1.425"/>
<circle cx="15" cy="19.3" r="2.09" fill="none" stroke="#FFFFFF" stroke-width="1.425"/>
<line x1="15" y1="21.39" x2="15" y2="21.96" stroke="#FFFFFF" stroke-width="1.425" stroke-linecap="butt"/>
<line x1="10.82" y1="21.96" x2="6.64" y2="21.96" stroke="#FFFFFF" stroke-width="1.21125" stroke-linecap="butt"/>
<line x1="19.18" y1="21.96" x2="23.36" y2="21.96" stroke="#FFFFFF" stroke-width="1.21125" stroke-linecap="butt"/>
<line x1="10.82" y1="25.76" x2="6.64" y2="25.76" stroke="#FFFFFF" stroke-width="1.21125" stroke-linecap="butt"/>
<line x1="19.18" y1="25.76" x2="23.36" y2="25.76" stroke="#FFFFFF" stroke-width="1.21125" stroke-linecap="butt"/>
<line x1="10.82" y1="29.56" x2="6.64" y2="29.56" stroke="#FFFFFF" stroke-width="1.21125" stroke-linecap="butt"/>
<line x1="19.18" y1="29.56" x2="23.36" y2="29.56" stroke="#FFFFFF" stroke-width="1.21125" stroke-linecap="butt"/>
<line x1="12.91" y1="17.4" x2="12.34" y2="15.88" stroke="#FFFFFF" stroke-width="1.14" stroke-linecap="butt"/>
<line x1="15" y1="17.4" x2="15" y2="15.88" stroke="#FFFFFF" stroke-width="1.14" stroke-linecap="butt"/>
<line x1="17.09" y1="17.4" x2="17.66" y2="15.88" stroke="#FFFFFF" stroke-width="1.14" stroke-linecap="butt"/>
<text x="353" y="29.5" font-family="'SF Mono',ui-monospace,'SF Mono Text',Menlo,'Roboto Mono','DejaVu Sans Mono',monospace" font-size="13" font-weight="400" fill="#30D158" text-anchor="end" letter-spacing="0.2" xml:space="preserve">READY</text>
<text x="42" y="24" font-family="'SF Pro Display','SF Pro Text',-apple-system,'Helvetica Neue',Inter,'Segoe UI',sans-serif" font-size="17" font-weight="400" fill="#FFFFFF" text-anchor="start" letter-spacing="-0.41" xml:space="preserve">Exploit matcher</text>
<text x="42" y="39" font-family="'SF Pro Display','SF Pro Text',-apple-system,'Helvetica Neue',Inter,'Segoe UI',sans-serif" font-size="13" font-weight="400" fill="rgba(235,235,245,0.60)" text-anchor="start" letter-spacing="-0.08" xml:space="preserve">CVE signature database</text>
</g>
<line x1="36" y1="461" x2="357" y2="461" stroke="rgba(84,84,88,0.65)" stroke-width="0.5" stroke-linecap="butt"/>
<g transform="translate(20,461.00)">
<rect x="0" y="10" width="30" height="30" rx="7.5" ry="7.5" fill="#FF9F0A" opacity="0.9"/>
<circle cx="11.2" cy="25" r="4.18" fill="none" stroke="#FFFFFF" stroke-width="1.425"/>
<line x1="15" y1="25" x2="23.36" y2="25" stroke="#FFFFFF" stroke-width="1.425" stroke-linecap="butt"/>
<line x1="20.7" y1="25" x2="20.7" y2="27.66" stroke="#FFFFFF" stroke-width="1.425" stroke-linecap="butt"/>
<line x1="22.98" y1="25" x2="22.98" y2="27.66" stroke="#FFFFFF" stroke-width="1.425" stroke-linecap="butt"/>
<text x="353" y="29.5" font-family="'SF Mono',ui-monospace,'SF Mono Text',Menlo,'Roboto Mono','DejaVu Sans Mono',monospace" font-size="13" font-weight="400" fill="#30D158" text-anchor="end" letter-spacing="0.2" xml:space="preserve">READY</text>
<text x="42" y="24" font-family="'SF Pro Display','SF Pro Text',-apple-system,'Helvetica Neue',Inter,'Segoe UI',sans-serif" font-size="17" font-weight="400" fill="#FFFFFF" text-anchor="start" letter-spacing="-0.41" xml:space="preserve">Login auditor</text>
<text x="42" y="39" font-family="'SF Pro Display','SF Pro Text',-apple-system,'Helvetica Neue',Inter,'Segoe UI',sans-serif" font-size="13" font-weight="400" fill="rgba(235,235,245,0.60)" text-anchor="start" letter-spacing="-0.08" xml:space="preserve">protocol-aware checks</text>
</g>
<line x1="36" y1="511" x2="357" y2="511" stroke="rgba(84,84,88,0.65)" stroke-width="0.5" stroke-linecap="butt"/>
<g transform="translate(20,511.00)">
<rect x="0" y="10" width="30" height="30" rx="7.5" ry="7.5" fill="#FF9F0A" opacity="0.9"/>
<rect x="6.26" y="22.72" width="4.56" height="4.56" rx="2.5" ry="2.5" fill="#FFFFFF"/>
<rect x="19.18" y="22.72" width="4.56" height="4.56" rx="2.5" ry="2.5" fill="#FFFFFF"/>
<path d="M 12.91 25.00 L 15.00 25.00" fill="none" stroke="#FFFFFF" stroke-width="1.425" stroke-linecap="round" stroke-linejoin="round"/>
<path d="M 14.81 22.34 L 14.81 27.66" fill="none" stroke="#FFFFFF" stroke-width="1.1400000000000001" stroke-linecap="round" stroke-linejoin="round"/>
<path d="M 15.00 19.30 A 5.70 5.70 0 0 1 15.00 30.70" fill="none" stroke="#FFFFFF" stroke-width="1.1400000000000001" stroke-linecap="round" stroke-linejoin="round"/>
<circle cx="14.62" cy="25" r="0.95" fill="#FFFFFF"/>
<text x="353" y="29.5" font-family="'SF Mono',ui-monospace,'SF Mono Text',Menlo,'Roboto Mono','DejaVu Sans Mono',monospace" font-size="13" font-weight="400" fill="#FF9F0A" text-anchor="end" letter-spacing="0.2" xml:space="preserve">ROOT</text>
<text x="42" y="24" font-family="'SF Pro Display','SF Pro Text',-apple-system,'Helvetica Neue',Inter,'Segoe UI',sans-serif" font-size="17" font-weight="400" fill="#FFFFFF" text-anchor="start" letter-spacing="-0.41" xml:space="preserve">ARP spoof / MITM</text>
<text x="42" y="39" font-family="'SF Pro Display','SF Pro Text',-apple-system,'Helvetica Neue',Inter,'Segoe UI',sans-serif" font-size="13" font-weight="400" fill="rgba(235,235,245,0.60)" text-anchor="start" letter-spacing="-0.08" xml:space="preserve">raw AF_PACKET socket</text>
</g>
<line x1="36" y1="561" x2="357" y2="561" stroke="rgba(84,84,88,0.65)" stroke-width="0.5" stroke-linecap="butt"/>
<g transform="translate(20,561.00)">
<rect x="0" y="10" width="30" height="30" rx="7.5" ry="7.5" fill="#FF9F0A" opacity="0.9"/>
<rect x="7.02" y="17.02" width="9.88" height="9.88" rx="4" ry="4" fill="none" stroke="#FFFFFF" stroke-width="1.425"/>
<rect x="13.1" y="23.1" width="9.88" height="9.88" rx="4" ry="4" fill="#FFFFFF" opacity="0.35"/>
<text x="353" y="29.5" font-family="'SF Mono',ui-monospace,'SF Mono Text',Menlo,'Roboto Mono','DejaVu Sans Mono',monospace" font-size="13" font-weight="400" fill="#FF9F0A" text-anchor="end" letter-spacing="0.2" xml:space="preserve">ROOT</text>
<text x="42" y="24" font-family="'SF Pro Display','SF Pro Text',-apple-system,'Helvetica Neue',Inter,'Segoe UI',sans-serif" font-size="17" font-weight="400" fill="#FFFFFF" text-anchor="start" letter-spacing="-0.41" xml:space="preserve">Packet forger</text>
<text x="42" y="39" font-family="'SF Pro Display','SF Pro Text',-apple-system,'Helvetica Neue',Inter,'Segoe UI',sans-serif" font-size="13" font-weight="400" fill="rgba(235,235,245,0.60)" text-anchor="start" letter-spacing="-0.08" xml:space="preserve">AF_INET raw socket</text>
</g>
<text x="20" y="608" font-family="'SF Pro Display','SF Pro Text',-apple-system,'Helvetica Neue',Inter,'Segoe UI',sans-serif" font-size="11" font-weight="400" fill="rgba(235,235,245,0.60)" text-anchor="start" letter-spacing="0.6" xml:space="preserve">GENERAL</text>
<rect x="20" y="638" width="353" height="94" rx="18" ry="18" fill="#1C1C1E"/>
<g transform="translate(20,643.00)">
<rect x="0" y="6" width="30" height="30" rx="7.5" ry="7.5" fill="rgba(235,235,245,0.60)" opacity="0.9"/>
<path d="M 12.15 17.01 L 15.95 17.01 L 17.85 18.91 L 17.85 24.99 L 12.15 24.99 Z" fill="none" stroke="#FFFFFF" stroke-width="1.425" stroke-linecap="round" stroke-linejoin="round"/>
<path d="M 15.95 17.01 L 15.95 18.91 L 17.85 18.91" fill="none" stroke="#FFFFFF" stroke-width="1.1400000000000001" stroke-linecap="round" stroke-linejoin="round"/>
<line x1="11.96" y1="19.86" x2="18.04" y2="19.86" stroke="#FFFFFF" stroke-width="1.06875" stroke-linecap="butt"/>
<line x1="11.96" y1="22.52" x2="18.04" y2="22.52" stroke="#FFFFFF" stroke-width="1.06875" stroke-linecap="butt"/>
<line x1="11.96" y1="25.18" x2="18.04" y2="25.18" stroke="#FFFFFF" stroke-width="1.06875" stroke-linecap="butt"/>
<path d="M 345 16.0 L 351.5 21.0 L 345 26.0" fill="none" stroke="rgba(235,235,245,0.30)" stroke-width="2" stroke-linecap="round" stroke-linejoin="round"/>
<text x="337" y="26.5" font-family="'SF Pro Display','SF Pro Text',-apple-system,'Helvetica Neue',Inter,'Segoe UI',sans-serif" font-size="17" font-weight="400" fill="rgba(235,235,245,0.30)" text-anchor="end" letter-spacing="-0.41" xml:space="preserve">v1</text>
<text x="42" y="26.5" font-family="'SF Pro Display','SF Pro Text',-apple-system,'Helvetica Neue',Inter,'Segoe UI',sans-serif" font-size="17" font-weight="400" fill="#FFFFFF" text-anchor="start" letter-spacing="-0.41" xml:space="preserve">Authorization statement</text>
</g>
<line x1="36" y1="685" x2="357" y2="685" stroke="rgba(84,84,88,0.65)" stroke-width="0.5" stroke-linecap="butt"/>
<g transform="translate(20,685.00)">
<rect x="0" y="6" width="30" height="30" rx="7.5" ry="7.5" fill="#FF453A" opacity="0.9"/>
<line x1="9.3" y1="16.06" x2="20.7" y2="16.06" stroke="#FFFFFF" stroke-width="1.425" stroke-linecap="butt"/>
<path d="M 10.82 16.06 L 11.58 28.6 L 18.42 28.6 L 19.18 16.06" fill="none" stroke="#FFFFFF" stroke-width="1.425" stroke-linecap="round" stroke-linejoin="round"/>
<path d="M 13.1 16.06 L 13.1 14.16 L 16.9 14.16 L 16.9 16.06" fill="none" stroke="#FFFFFF" stroke-width="1.425" stroke-linecap="round" stroke-linejoin="round"/>
<text x="42" y="26.5" font-family="'SF Pro Display','SF Pro Text',-apple-system,'Helvetica Neue',Inter,'Segoe UI',sans-serif" font-size="17" font-weight="400" fill="#FF453A" text-anchor="start" letter-spacing="-0.41" xml:space="preserve">Reset all data</text>
</g>
<text x="196.5" y="756" font-family="'SF Pro Display','SF Pro Text',-apple-system,'Helvetica Neue',Inter,'Segoe UI',sans-serif" font-size="11" font-weight="400" fill="rgba(235,235,245,0.30)" text-anchor="middle" letter-spacing="0.06" xml:space="preserve">ZEROSPLOIT 1.0.0  ·  build 20260929</text>
</svg>
