<svg xmlns="http://www.w3.org/2000/svg" xmlns:inkscape="http://www.inkscape.org/namespaces/inkscape" xmlns:sodipodi="http://sodipodi.sourceforge.net/DTD/sodipodi-0.dtd" version="1.1" inkscape:version="1.4.2" width="393pt" height="852pt" viewBox="0 0 393 852">
<title id="tt">ZEROSPLOIT</title>
<sodipodi:namedview id="nv" inkscape:document-units="pt" pagecolor="#000000" bordercolor="#666666" inkscape:pagecheckerboard="false" inkscape:zoom="0.5" inkscape:cx="196" inkscape:cy="426"/>
<defs id="zsdefs"><linearGradient id="grad1" x1="0" y1="0" x2="0" y2="1"><stop offset="0" stop-color="#1C1C1E" stop-opacity="0.0"/><stop offset="0.5" stop-color="#1C1C1E" stop-opacity="0.92"/><stop offset="1" stop-color="#1C1C1E" stop-opacity="1.0"/></linearGradient></defs>
<rect x="0" y="0" width="393" height="852" rx="0" ry="0" fill="#000000"/>
<text x="29" y="35" font-family="'SF Pro Display','SF Pro Text',-apple-system,'Helvetica Neue',Inter,'Segoe UI',sans-serif" font-size="15" font-weight="600" fill="#FFFFFF" text-anchor="start" letter-spacing="0" xml:space="preserve">9:41</text>
<rect x="126" y="11" width="141" height="37" rx="19" ry="19" fill="#000"/>
<circle cx="213" cy="29.5" r="4.5" fill="#1C1C1E"/>
<rect x="288" y="31" width="3.4" height="4" rx="1.1" ry="1.1" fill="#FFFFFF"/>
<rect x="293" y="28.5" width="3.4" height="6.5" rx="1.1" ry="1.1" fill="#FFFFFF"/>
<rect x="298" y="26" width="3.4" height="9" rx="1.1" ry="1.1" fill="#FFFFFF"/>
<rect x="303" y="23.5" width="3.4" height="11.5" rx="1.1" ry="1.1" fill="#FFFFFF"/>
<path d="M 325.8 27.5 A 6.4 6.4 0 0 1 332.2 27.5" fill="none" stroke="#FFFFFF" stroke-width="1.7" stroke-linecap="round" stroke-linejoin="round"/>
<path d="M 322.4 27.7 A 13.2 13.2 0 0 1 335.6 27.5" fill="none" stroke="#FFFFFF" stroke-width="1.7" stroke-linecap="round" stroke-linejoin="round"/>
<path d="M 319 27.9 A 20 20 0 0 1 339 27.5" fill="none" stroke="#FFFFFF" stroke-width="1.7" stroke-linecap="round" stroke-linejoin="round"/>
<circle cx="329" cy="32.2" r="1.5" fill="#FFFFFF"/>
<rect x="340" y="24" width="22" height="11" rx="3.4" ry="3.4" fill="none" stroke="#FFFFFF" stroke-width="1" opacity="0.4"/>
<rect x="342" y="26" width="14" height="7" rx="2" ry="2" fill="#FFFFFF"/>
<rect x="363.5" y="27.4" width="1.6" height="4.2" rx="0.8" ry="0.8" fill="#FFFFFF" opacity="0.4"/>
<path d="M 19 22 L 11 30 L 19 38" fill="none" stroke="#0A84FF" stroke-width="2.4" stroke-linecap="round" stroke-linejoin="round"/>
<text x="25" y="35" font-family="'SF Pro Display','SF Pro Text',-apple-system,'Helvetica Neue',Inter,'Segoe UI',sans-serif" font-size="17" font-weight="400" fill="#0A84FF" text-anchor="start" letter-spacing="-0.41" xml:space="preserve">Target</text>
<text x="20" y="82" font-family="'SF Pro Display','SF Pro Text',-apple-system,'Helvetica Neue',Inter,'Segoe UI',sans-serif" font-size="34" font-weight="700" fill="#FFFFFF" text-anchor="start" letter-spacing="-0.4" xml:space="preserve">Service Inspector</text>
<text x="20" y="100" font-family="'SF Pro Display','SF Pro Text',-apple-system,'Helvetica Neue',Inter,'Segoe UI',sans-serif" font-size="13" font-weight="400" fill="rgba(235,235,245,0.60)" text-anchor="start" letter-spacing="-0.08" xml:space="preserve">192.168.1.1:22</text>
<rect x="0" y="763" width="393" height="89" rx="0" ry="0" fill="#000000"/>
<rect x="0" y="769" width="393" height="49" rx="0" ry="0" fill="url(#grad1)"/>
<line x1="0" y1="769" x2="393" y2="769" stroke="rgba(84,84,88,0.65)" stroke-width="0.5" stroke-linecap="butt"/>
<circle cx="39.3" cy="789" r="8.58" fill="none" stroke="rgba(235,235,245,0.30)" stroke-width="1.6"/>
<circle cx="39.3" cy="789" r="3.96" fill="none" stroke="rgba(235,235,245,0.30)" stroke-width="1.6" opacity="0.75"/>
<line x1="39.3" y1="789" x2="45.46" y2="782.84" stroke="rgba(235,235,245,0.30)" stroke-width="1.6" stroke-linecap="butt"/>
<text x="39.3" y="811" font-family="'SF Pro Display','SF Pro Text',-apple-system,'Helvetica Neue',Inter,'Segoe UI',sans-serif" font-size="11" font-weight="500" fill="rgba(235,235,245,0.30)" text-anchor="middle" letter-spacing="0.1" xml:space="preserve">Scan</text>
<rect x="108.55" y="780.75" width="10.45" height="11.55" rx="2" ry="2" fill="none" stroke="#0A84FF" stroke-width="1.6"/>
<rect x="119.55" y="785.7" width="7.7" height="13.2" rx="2" ry="2" fill="none" stroke="#0A84FF" stroke-width="1.6"/>
<text x="117.9" y="811" font-family="'SF Pro Display','SF Pro Text',-apple-system,'Helvetica Neue',Inter,'Segoe UI',sans-serif" font-size="11" font-weight="500" fill="#0A84FF" text-anchor="middle" letter-spacing="0.1" xml:space="preserve">Targets</text>
<rect x="186.6" y="780.75" width="19.8" height="16.5" rx="2.6" ry="2.6" fill="none" stroke="rgba(235,235,245,0.30)" stroke-width="1.6"/>
<polygon points="191.55,786.8 195.95,789.88 191.55,792.96" fill="none" stroke="rgba(235,235,245,0.30)" stroke-width="1.6" stroke-linejoin="round" stroke-linecap="round"/>
<line x1="197.05" y1="792.96" x2="202" y2="792.96" stroke="rgba(235,235,245,0.30)" stroke-width="1.6" stroke-linecap="butt"/>
<text x="196.5" y="811" font-family="'SF Pro Display','SF Pro Text',-apple-system,'Helvetica Neue',Inter,'Segoe UI',sans-serif" font-size="11" font-weight="500" fill="rgba(235,235,245,0.30)" text-anchor="middle" letter-spacing="0.1" xml:space="preserve">Sessions</text>
<line x1="265.2" y1="797.25" x2="265.2" y2="782.4" stroke="rgba(235,235,245,0.30)" stroke-width="1.6" stroke-linecap="butt"/>
<line x1="270.15" y1="797.25" x2="270.15" y2="789" stroke="rgba(235,235,245,0.30)" stroke-width="1.6" stroke-linecap="butt"/>
<line x1="275.1" y1="797.25" x2="275.1" y2="777.45" stroke="rgba(235,235,245,0.30)" stroke-width="1.6" stroke-linecap="butt"/>
<line x1="280.05" y1="797.25" x2="280.05" y2="786.525" stroke="rgba(235,235,245,0.30)" stroke-width="1.6" stroke-linecap="butt"/>
<line x1="285" y1="797.25" x2="285" y2="780.75" stroke="rgba(235,235,245,0.30)" stroke-width="1.6" stroke-linecap="butt"/>
<text x="275.1" y="811" font-family="'SF Pro Display','SF Pro Text',-apple-system,'Helvetica Neue',Inter,'Segoe UI',sans-serif" font-size="11" font-weight="500" fill="rgba(235,235,245,0.30)" text-anchor="middle" letter-spacing="0.1" xml:space="preserve">Logs</text>
<circle cx="353.7" cy="789" r="4.62" fill="none" stroke="rgba(235,235,245,0.30)" stroke-width="1.7"/>
<line x1="360.52" y1="789" x2="363.6" y2="789" stroke="rgba(235,235,245,0.30)" stroke-width="1.5" stroke-linecap="butt"/>
<line x1="358.522" y1="793.822" x2="360.7" y2="796" stroke="rgba(235,235,245,0.30)" stroke-width="1.5" stroke-linecap="butt"/>
<line x1="353.7" y1="795.82" x2="353.7" y2="798.9" stroke="rgba(235,235,245,0.30)" stroke-width="1.5" stroke-linecap="butt"/>
<line x1="348.878" y1="793.822" x2="346.7" y2="796" stroke="rgba(235,235,245,0.30)" stroke-width="1.5" stroke-linecap="butt"/>
<line x1="346.88" y1="789" x2="343.8" y2="789" stroke="rgba(235,235,245,0.30)" stroke-width="1.5" stroke-linecap="butt"/>
<line x1="348.878" y1="784.178" x2="346.7" y2="782" stroke="rgba(235,235,245,0.30)" stroke-width="1.5" stroke-linecap="butt"/>
<line x1="353.7" y1="782.18" x2="353.7" y2="779.1" stroke="rgba(235,235,245,0.30)" stroke-width="1.5" stroke-linecap="butt"/>
<line x1="358.522" y1="784.178" x2="360.7" y2="782" stroke="rgba(235,235,245,0.30)" stroke-width="1.5" stroke-linecap="butt"/>
<text x="353.7" y="811" font-family="'SF Pro Display','SF Pro Text',-apple-system,'Helvetica Neue',Inter,'Segoe UI',sans-serif" font-size="11" font-weight="500" fill="rgba(235,235,245,0.30)" text-anchor="middle" letter-spacing="0.1" xml:space="preserve">Settings</text>
<rect x="129.5" y="840" width="134" height="5" rx="2.5" ry="2.5" fill="#FFFFFF" opacity="0.92"/>
<text x="20" y="106" font-family="'SF Pro Display','SF Pro Text',-apple-system,'Helvetica Neue',Inter,'Segoe UI',sans-serif" font-size="11" font-weight="400" fill="rgba(235,235,245,0.60)" text-anchor="start" letter-spacing="0.6" xml:space="preserve">IDENTIFICATION</text>
<rect x="20" y="136" width="353" height="230" rx="18" ry="18" fill="#1C1C1E"/>
<g transform="translate(20,141.00)">
<rect x="0" y="7" width="30" height="30" rx="7.5" ry="7.5" fill="#40C8E0" opacity="0.9"/>
<rect x="7.4" y="14.4" width="15.2" height="6.46" rx="3" ry="3" fill="none" stroke="#FFFFFF" stroke-width="1.425"/>
<rect x="7.4" y="23.14" width="15.2" height="6.46" rx="3" ry="3" fill="none" stroke="#FFFFFF" stroke-width="1.425"/>
<circle cx="10.06" cy="17.63" r="0.855" fill="#FFFFFF"/>
<circle cx="10.06" cy="26.37" r="0.855" fill="#FFFFFF"/>
<text x="353" y="26.5" font-family="'SF Mono',ui-monospace,'SF Mono Text',Menlo,'Roboto Mono','DejaVu Sans Mono',monospace" font-size="13" font-weight="400" fill="#FFFFFF" text-anchor="end" letter-spacing="0.2" xml:space="preserve">SSH-2.0-OpenSSH_8.4p1</text>
<text x="42" y="27.5" font-family="'SF Pro Display','SF Pro Text',-apple-system,'Helvetica Neue',Inter,'Segoe UI',sans-serif" font-size="17" font-weight="400" fill="#FFFFFF" text-anchor="start" letter-spacing="-0.41" xml:space="preserve">Protocol</text>
</g>
<line x1="36" y1="185" x2="357" y2="185" stroke="rgba(84,84,88,0.65)" stroke-width="0.5" stroke-linecap="butt"/>
<g transform="translate(20,185.00)">
<rect x="0" y="7" width="30" height="30" rx="7.5" ry="7.5" fill="#40C8E0" opacity="0.9"/>
<rect x="10.06" y="17.06" width="9.88" height="9.88" rx="3" ry="3" fill="none" stroke="#FFFFFF" stroke-width="1.425"/>
<rect x="13.29" y="20.29" width="3.42" height="3.42" rx="1.5" ry="1.5" fill="none" stroke="#FFFFFF" stroke-width="1.1400000000000001"/>
<line x1="12.15" y1="14.4" x2="12.15" y2="17.06" stroke="#FFFFFF" stroke-width="1.14" stroke-linecap="butt"/>
<line x1="12.15" y1="26.94" x2="12.15" y2="29.6" stroke="#FFFFFF" stroke-width="1.14" stroke-linecap="butt"/>
<line x1="7.4" y1="19.15" x2="10.06" y2="19.15" stroke="#FFFFFF" stroke-width="1.14" stroke-linecap="butt"/>
<line x1="19.94" y1="19.15" x2="22.6" y2="19.15" stroke="#FFFFFF" stroke-width="1.14" stroke-linecap="butt"/>
<line x1="15" y1="14.4" x2="15" y2="17.06" stroke="#FFFFFF" stroke-width="1.14" stroke-linecap="butt"/>
<line x1="15" y1="26.94" x2="15" y2="29.6" stroke="#FFFFFF" stroke-width="1.14" stroke-linecap="butt"/>
<line x1="7.4" y1="22" x2="10.06" y2="22" stroke="#FFFFFF" stroke-width="1.14" stroke-linecap="butt"/>
<line x1="19.94" y1="22" x2="22.6" y2="22" stroke="#FFFFFF" stroke-width="1.14" stroke-linecap="butt"/>
<line x1="17.85" y1="14.4" x2="17.85" y2="17.06" stroke="#FFFFFF" stroke-width="1.14" stroke-linecap="butt"/>
<line x1="17.85" y1="26.94" x2="17.85" y2="29.6" stroke="#FFFFFF" stroke-width="1.14" stroke-linecap="butt"/>
<line x1="7.4" y1="24.85" x2="10.06" y2="24.85" stroke="#FFFFFF" stroke-width="1.14" stroke-linecap="butt"/>
<line x1="19.94" y1="24.85" x2="22.6" y2="24.85" stroke="#FFFFFF" stroke-width="1.14" stroke-linecap="butt"/>
<path d="M 345 17.0 L 351.5 22.0 L 345 27.0" fill="none" stroke="rgba(235,235,245,0.30)" stroke-width="2" stroke-linecap="round" stroke-linejoin="round"/>
<text x="337" y="27.5" font-family="'SF Pro Display','SF Pro Text',-apple-system,'Helvetica Neue',Inter,'Segoe UI',sans-serif" font-size="17" font-weight="400" fill="#FFFFFF" text-anchor="end" letter-spacing="-0.41" xml:space="preserve">OpenWrt 21.02.3</text>
<text x="42" y="27.5" font-family="'SF Pro Display','SF Pro Text',-apple-system,'Helvetica Neue',Inter,'Segoe UI',sans-serif" font-size="17" font-weight="400" fill="#FFFFFF" text-anchor="start" letter-spacing="-0.41" xml:space="preserve">Firmware</text>
</g>
<line x1="36" y1="229" x2="357" y2="229" stroke="rgba(84,84,88,0.65)" stroke-width="0.5" stroke-linecap="butt"/>
<g transform="translate(20,229.00)">
<rect x="0" y="7" width="30" height="30" rx="7.5" ry="7.5" fill="#40C8E0" opacity="0.9"/>
<rect x="8.92" y="20.86" width="12.16" height="9.12" rx="4" ry="4" fill="none" stroke="#FFFFFF" stroke-width="1.425"/>
<path d="M 11.39 20.86 L 11.39 18.2 A 3.61 3.61 0 0 1 18.61 18.2 L 18.61 20.86" fill="none" stroke="#FFFFFF" stroke-width="1.425" stroke-linecap="round" stroke-linejoin="round"/>
<circle cx="15" cy="25.42" r="1.045" fill="#FFFFFF"/>
<text x="353" y="26.5" font-family="'SF Mono',ui-monospace,'SF Mono Text',Menlo,'Roboto Mono','DejaVu Sans Mono',monospace" font-size="13" font-weight="400" fill="#30D158" text-anchor="end" letter-spacing="0.2" xml:space="preserve">aes256-ctr / hmac</text>
<text x="42" y="27.5" font-family="'SF Pro Display','SF Pro Text',-apple-system,'Helvetica Neue',Inter,'Segoe UI',sans-serif" font-size="17" font-weight="400" fill="#FFFFFF" text-anchor="start" letter-spacing="-0.41" xml:space="preserve">Encryption</text>
</g>
<line x1="36" y1="273" x2="357" y2="273" stroke="rgba(84,84,88,0.65)" stroke-width="0.5" stroke-linecap="butt"/>
<g transform="translate(20,273.00)">
<rect x="0" y="7" width="30" height="30" rx="7.5" ry="7.5" fill="#40C8E0" opacity="0.9"/>
<circle cx="15" cy="17.82" r="3.23" fill="none" stroke="#FFFFFF" stroke-width="1.425"/>
<path d="M 11.77 25.42 L 11.77 23.71 L 18.23 23.71 L 18.23 25.42" fill="none" stroke="#FFFFFF" stroke-width="1.425" stroke-linecap="round" stroke-linejoin="round"/>
<path d="M 345 17.0 L 351.5 22.0 L 345 27.0" fill="none" stroke="rgba(235,235,245,0.30)" stroke-width="2" stroke-linecap="round" stroke-linejoin="round"/>
<text x="337" y="27.5" font-family="'SF Pro Display','SF Pro Text',-apple-system,'Helvetica Neue',Inter,'Segoe UI',sans-serif" font-size="17" font-weight="400" fill="rgba(235,235,245,0.60)" text-anchor="end" letter-spacing="-0.41" xml:space="preserve">publickey,password</text>
<text x="42" y="27.5" font-family="'SF Pro Display','SF Pro Text',-apple-system,'Helvetica Neue',Inter,'Segoe UI',sans-serif" font-size="17" font-weight="400" fill="#FFFFFF" text-anchor="start" letter-spacing="-0.41" xml:space="preserve">Auth methods</text>
</g>
<line x1="36" y1="317" x2="357" y2="317" stroke="rgba(84,84,88,0.65)" stroke-width="0.5" stroke-linecap="butt"/>
<g transform="translate(20,317.00)">
<rect x="0" y="7" width="30" height="30" rx="7.5" ry="7.5" fill="#40C8E0" opacity="0.9"/>
<path d="M 12.15 18.01 L 15.95 18.01 L 17.85 19.91 L 17.85 25.99 L 12.15 25.99 Z" fill="none" stroke="#FFFFFF" stroke-width="1.425" stroke-linecap="round" stroke-linejoin="round"/>
<path d="M 15.95 18.01 L 15.95 19.91 L 17.85 19.91" fill="none" stroke="#FFFFFF" stroke-width="1.1400000000000001" stroke-linecap="round" stroke-linejoin="round"/>
<line x1="11.96" y1="20.86" x2="18.04" y2="20.86" stroke="#FFFFFF" stroke-width="1.06875" stroke-linecap="butt"/>
<line x1="11.96" y1="23.52" x2="18.04" y2="23.52" stroke="#FFFFFF" stroke-width="1.06875" stroke-linecap="butt"/>
<line x1="11.96" y1="26.18" x2="18.04" y2="26.18" stroke="#FFFFFF" stroke-width="1.06875" stroke-linecap="butt"/>
<path d="M 345 17.0 L 351.5 22.0 L 345 27.0" fill="none" stroke="rgba(235,235,245,0.30)" stroke-width="2" stroke-linecap="round" stroke-linejoin="round"/>
<text x="42" y="27.5" font-family="'SF Pro Display','SF Pro Text',-apple-system,'Helvetica Neue',Inter,'Segoe UI',sans-serif" font-size="17" font-weight="400" fill="#FFFFFF" text-anchor="start" letter-spacing="-0.41" xml:space="preserve">Full banner</text>
</g>
<text x="20" y="382" font-family="'SF Pro Display','SF Pro Text',-apple-system,'Helvetica Neue',Inter,'Segoe UI',sans-serif" font-size="11" font-weight="400" fill="rgba(235,235,245,0.60)" text-anchor="start" letter-spacing="0.8" xml:space="preserve">RAW BANNER</text>
<rect x="20" y="392" width="353" height="160" rx="12" ry="12" fill="#0B0B0D"/>
<rect x="20" y="392" width="353" height="160" rx="12" ry="12" fill="none" stroke="rgba(84,84,88,0.65)" stroke-width="0.5"/>
<text x="32" y="415.5" font-family="'SF Mono',ui-monospace,'SF Mono Text',Menlo,'Roboto Mono','DejaVu Sans Mono',monospace" font-size="11.5" font-weight="400" fill="rgba(235,235,245,0.60)" text-anchor="start" letter-spacing="0.2" xml:space="preserve">SSH-2.0-OpenSSH_8.4p1 Raspbian-5</text>
<text x="32" y="432.5" font-family="'SF Mono',ui-monospace,'SF Mono Text',Menlo,'Roboto Mono','DejaVu Sans Mono',monospace" font-size="11.5" font-weight="400" fill="#64D2FF" text-anchor="start" letter-spacing="0.2" xml:space="preserve">SSH-2.0-OpenSSH_8.4p1</text>
<text x="32" y="449.5" font-family="'SF Mono',ui-monospace,'SF Mono Text',Menlo,'Roboto Mono','DejaVu Sans Mono',monospace" font-size="11.5" font-weight="400" fill="rgba(235,235,245,0.30)" text-anchor="start" letter-spacing="0.2" xml:space="preserve">debug1: kex_exchange_identification</text>
<text x="32" y="466.5" font-family="'SF Mono',ui-monospace,'SF Mono Text',Menlo,'Roboto Mono','DejaVu Sans Mono',monospace" font-size="11.5" font-weight="400" fill="rgba(235,235,245,0.30)" text-anchor="start" letter-spacing="0.2" xml:space="preserve">debug1: SSH2_MSG_KEXINIT received</text>
<text x="32" y="483.5" font-family="'SF Mono',ui-monospace,'SF Mono Text',Menlo,'Roboto Mono','DejaVu Sans Mono',monospace" font-size="11.5" font-weight="400" fill="#30D158" text-anchor="start" letter-spacing="0.2" xml:space="preserve">kex: algorithm: curve25519-sha256</text>
<text x="32" y="500.5" font-family="'SF Mono',ui-monospace,'SF Mono Text',Menlo,'Roboto Mono','DejaVu Sans Mono',monospace" font-size="11.5" font-weight="400" fill="#30D158" text-anchor="start" letter-spacing="0.2" xml:space="preserve">kex: host key: ssh-rsa SHA256:aB3...</text>
<text x="32" y="517.5" font-family="'SF Mono',ui-monospace,'SF Mono Text',Menlo,'Roboto Mono','DejaVu Sans Mono',monospace" font-size="11.5" font-weight="400" fill="#30D158" text-anchor="start" letter-spacing="0.2" xml:space="preserve">kex: server-sig-algs: rsa-sha2-512</text>
<text x="32" y="534.5" font-family="'SF Mono',ui-monospace,'SF Mono Text',Menlo,'Roboto Mono','DejaVu Sans Mono',monospace" font-size="11.5" font-weight="400" fill="#FF9F0A" text-anchor="start" letter-spacing="0.2" xml:space="preserve">publickey,password</text>
<text x="20" y="574" font-family="'SF Pro Display','SF Pro Text',-apple-system,'Helvetica Neue',Inter,'Segoe UI',sans-serif" font-size="11" font-weight="400" fill="rgba(235,235,245,0.60)" text-anchor="start" letter-spacing="0.8" xml:space="preserve">TLS / CERTIFICATE</text>
<rect x="20" y="586" width="353" height="178" rx="18" ry="18" fill="#1C1C1E"/>
<g transform="translate(20,591.00)">
<text x="0" y="25" font-family="'SF Pro Display','SF Pro Text',-apple-system,'Helvetica Neue',Inter,'Segoe UI',sans-serif" font-size="17" font-weight="400" fill="rgba(235,235,245,0.60)" text-anchor="start" letter-spacing="-0.41" xml:space="preserve">Subject</text>
<text x="78" y="26.5" font-family="'SF Pro Display','SF Pro Text',-apple-system,'Helvetica Neue',Inter,'Segoe UI',sans-serif" font-size="17" font-weight="400" fill="#FFFFFF" text-anchor="start" letter-spacing="-0.41" xml:space="preserve">CN=router.asus.local</text>
</g>
<line x1="36" y1="633" x2="357" y2="633" stroke="rgba(84,84,88,0.65)" stroke-width="0.5" stroke-linecap="butt"/>
<g transform="translate(20,633.00)">
<text x="0" y="25" font-family="'SF Pro Display','SF Pro Text',-apple-system,'Helvetica Neue',Inter,'Segoe UI',sans-serif" font-size="17" font-weight="400" fill="rgba(235,235,245,0.60)" text-anchor="start" letter-spacing="-0.41" xml:space="preserve">Issuer</text>
<text x="78" y="26.5" font-family="'SF Pro Display','SF Pro Text',-apple-system,'Helvetica Neue',Inter,'Segoe UI',sans-serif" font-size="17" font-weight="400" fill="#FFFFFF" text-anchor="start" letter-spacing="-0.41" xml:space="preserve">CN=router.asus.local (self)</text>
</g>
<line x1="36" y1="675" x2="357" y2="675" stroke="rgba(84,84,88,0.65)" stroke-width="0.5" stroke-linecap="butt"/>
<g transform="translate(20,675.00)">
<text x="0" y="25" font-family="'SF Pro Display','SF Pro Text',-apple-system,'Helvetica Neue',Inter,'Segoe UI',sans-serif" font-size="17" font-weight="400" fill="rgba(235,235,245,0.60)" text-anchor="start" letter-spacing="-0.41" xml:space="preserve">Expires</text>
<text x="78" y="26.5" font-family="'SF Pro Display','SF Pro Text',-apple-system,'Helvetica Neue',Inter,'Segoe UI',sans-serif" font-size="17" font-weight="400" fill="#FFFFFF" text-anchor="start" letter-spacing="-0.41" xml:space="preserve">2027-04-11 (418 d)</text>
</g>
<line x1="36" y1="717" x2="357" y2="717" stroke="rgba(84,84,88,0.65)" stroke-width="0.5" stroke-linecap="butt"/>
<g transform="translate(20,717.00)">
<text x="0" y="25" font-family="'SF Pro Display','SF Pro Text',-apple-system,'Helvetica Neue',Inter,'Segoe UI',sans-serif" font-size="17" font-weight="400" fill="rgba(235,235,245,0.60)" text-anchor="start" letter-spacing="-0.41" xml:space="preserve">SAN</text>
<text x="78" y="26.5" font-family="'SF Pro Display','SF Pro Text',-apple-system,'Helvetica Neue',Inter,'Segoe UI',sans-serif" font-size="17" font-weight="400" fill="#FFFFFF" text-anchor="start" letter-spacing="-0.41" xml:space="preserve">router.asus.local</text>
</g>
</svg>
