<svg xmlns="http://www.w3.org/2000/svg" xmlns:inkscape="http://www.inkscape.org/namespaces/inkscape" xmlns:sodipodi="http://sodipodi.sourceforge.net/DTD/sodipodi-0.dtd" version="1.1" inkscape:version="1.4.2" width="393pt" height="852pt" viewBox="0 0 393 852">
<title id="tt">ZEROSPLOIT</title>
<sodipodi:namedview id="nv" inkscape:document-units="pt" pagecolor="#000000" bordercolor="#666666" inkscape:pagecheckerboard="false" inkscape:zoom="0.5" inkscape:cx="196" inkscape:cy="426"/>
<defs id="zsdefs"><linearGradient id="grad1" x1="0" y1="0" x2="0" y2="1"><stop offset="0" stop-color="#1C1C1E" stop-opacity="0.0"/><stop offset="0.5" stop-color="#1C1C1E" stop-opacity="0.92"/><stop offset="1" stop-color="#1C1C1E" stop-opacity="1.0"/></linearGradient><linearGradient id="ss" x1="0" y1="0" x2="0" y2="1"><stop offset="0" stop-color="#241436"/><stop offset="1" stop-color="#0C0810"/></linearGradient></defs>
<rect x="0" y="0" width="393" height="852" rx="0" ry="0" fill="#000000"/>
<text x="29" y="35" font-family="'SF Pro Display','SF Pro Text',-apple-system,'Helvetica Neue',Inter,'Segoe UI',sans-serif" font-size="15" font-weight="600" fill="#FFFFFF" text-anchor="start" letter-spacing="0" xml:space="preserve">9:41</text>
<rect x="126" y="11" width="141" height="37" rx="19" ry="19" fill="#000"/>
<circle cx="213" cy="29.5" r="4.5" fill="#1C1C1E"/>
<rect x="288" y="31" width="3.4" height="4" rx="1.1" ry="1.1" fill="#FFFFFF"/>
<rect x="293" y="28.5" width="3.4" height="6.5" rx="1.1" ry="1.1" fill="#FFFFFF"/>
<rect x="298" y="26" width="3.4" height="9" rx="1.1" ry="1.1" fill="#FFFFFF"/>
<rect x="303" y="23.5" width="3.4" height="11.5" rx="1.1" ry="1.1" fill="#FFFFFF"/>
<path d="M 325.8 27.5 A 6.4 6.4 0 0 1 332.2 27.5" fill="none" stroke="#FFFFFF" stroke-width="1.7" stroke-linecap="round" stroke-linejoin="round"/>
<path d="M 322.4 27.7 A 13.2 13.2 0 0 1 335.6 27.5" fill="none" stroke="#FFFFFF" stroke-width="1.7" stroke-linecap="round" stroke-linejoin="round"/>
<path d="M 319 27.9 A 20 20 0 0 1 339 27.5" fill="none" stroke="#FFFFFF" stroke-width="1.7" stroke-linecap="round" stroke-linejoin="round"/>
<circle cx="329" cy="32.2" r="1.5" fill="#FFFFFF"/>
<rect x="340" y="24" width="22" height="11" rx="3.4" ry="3.4" fill="none" stroke="#FFFFFF" stroke-width="1" opacity="0.4"/>
<rect x="342" y="26" width="14" height="7" rx="2" ry="2" fill="#FFFFFF"/>
<rect x="363.5" y="27.4" width="1.6" height="4.2" rx="0.8" ry="0.8" fill="#FFFFFF" opacity="0.4"/>
<text x="20" y="82" font-family="'SF Pro Display','SF Pro Text',-apple-system,'Helvetica Neue',Inter,'Segoe UI',sans-serif" font-size="34" font-weight="700" fill="#FFFFFF" text-anchor="start" letter-spacing="-0.4" xml:space="preserve">Sessions</text>
<text x="20" y="100" font-family="'SF Pro Display','SF Pro Text',-apple-system,'Helvetica Neue',Inter,'Segoe UI',sans-serif" font-size="13" font-weight="400" fill="rgba(235,235,245,0.60)" text-anchor="start" letter-spacing="-0.08" xml:space="preserve">3 live · 1 escalated</text>
<rect x="0" y="763" width="393" height="89" rx="0" ry="0" fill="#000000"/>
<rect x="0" y="769" width="393" height="49" rx="0" ry="0" fill="url(#grad1)"/>
<line x1="0" y1="769" x2="393" y2="769" stroke="rgba(84,84,88,0.65)" stroke-width="0.5" stroke-linecap="butt"/>
<circle cx="39.3" cy="789" r="8.58" fill="none" stroke="rgba(235,235,245,0.30)" stroke-width="1.6"/>
<circle cx="39.3" cy="789" r="3.96" fill="none" stroke="rgba(235,235,245,0.30)" stroke-width="1.6" opacity="0.75"/>
<line x1="39.3" y1="789" x2="45.46" y2="782.84" stroke="rgba(235,235,245,0.30)" stroke-width="1.6" stroke-linecap="butt"/>
<text x="39.3" y="811" font-family="'SF Pro Display','SF Pro Text',-apple-system,'Helvetica Neue',Inter,'Segoe UI',sans-serif" font-size="11" font-weight="500" fill="rgba(235,235,245,0.30)" text-anchor="middle" letter-spacing="0.1" xml:space="preserve">Scan</text>
<rect x="108.55" y="780.75" width="10.45" height="11.55" rx="2" ry="2" fill="none" stroke="rgba(235,235,245,0.30)" stroke-width="1.6"/>
<rect x="119.55" y="785.7" width="7.7" height="13.2" rx="2" ry="2" fill="none" stroke="rgba(235,235,245,0.30)" stroke-width="1.6"/>
<text x="117.9" y="811" font-family="'SF Pro Display','SF Pro Text',-apple-system,'Helvetica Neue',Inter,'Segoe UI',sans-serif" font-size="11" font-weight="500" fill="rgba(235,235,245,0.30)" text-anchor="middle" letter-spacing="0.1" xml:space="preserve">Targets</text>
<rect x="186.6" y="780.75" width="19.8" height="16.5" rx="2.6" ry="2.6" fill="none" stroke="#0A84FF" stroke-width="1.6"/>
<polygon points="191.55,786.8 195.95,789.88 191.55,792.96" fill="none" stroke="#0A84FF" stroke-width="1.6" stroke-linejoin="round" stroke-linecap="round"/>
<line x1="197.05" y1="792.96" x2="202" y2="792.96" stroke="#0A84FF" stroke-width="1.6" stroke-linecap="butt"/>
<text x="196.5" y="811" font-family="'SF Pro Display','SF Pro Text',-apple-system,'Helvetica Neue',Inter,'Segoe UI',sans-serif" font-size="11" font-weight="500" fill="#0A84FF" text-anchor="middle" letter-spacing="0.1" xml:space="preserve">Sessions</text>
<line x1="265.2" y1="797.25" x2="265.2" y2="782.4" stroke="rgba(235,235,245,0.30)" stroke-width="1.6" stroke-linecap="butt"/>
<line x1="270.15" y1="797.25" x2="270.15" y2="789" stroke="rgba(235,235,245,0.30)" stroke-width="1.6" stroke-linecap="butt"/>
<line x1="275.1" y1="797.25" x2="275.1" y2="777.45" stroke="rgba(235,235,245,0.30)" stroke-width="1.6" stroke-linecap="butt"/>
<line x1="280.05" y1="797.25" x2="280.05" y2="786.525" stroke="rgba(235,235,245,0.30)" stroke-width="1.6" stroke-linecap="butt"/>
<line x1="285" y1="797.25" x2="285" y2="780.75" stroke="rgba(235,235,245,0.30)" stroke-width="1.6" stroke-linecap="butt"/>
<text x="275.1" y="811" font-family="'SF Pro Display','SF Pro Text',-apple-system,'Helvetica Neue',Inter,'Segoe UI',sans-serif" font-size="11" font-weight="500" fill="rgba(235,235,245,0.30)" text-anchor="middle" letter-spacing="0.1" xml:space="preserve">Logs</text>
<circle cx="353.7" cy="789" r="4.62" fill="none" stroke="rgba(235,235,245,0.30)" stroke-width="1.7"/>
<line x1="360.52" y1="789" x2="363.6" y2="789" stroke="rgba(235,235,245,0.30)" stroke-width="1.5" stroke-linecap="butt"/>
<line x1="358.522" y1="793.822" x2="360.7" y2="796" stroke="rgba(235,235,245,0.30)" stroke-width="1.5" stroke-linecap="butt"/>
<line x1="353.7" y1="795.82" x2="353.7" y2="798.9" stroke="rgba(235,235,245,0.30)" stroke-width="1.5" stroke-linecap="butt"/>
<line x1="348.878" y1="793.822" x2="346.7" y2="796" stroke="rgba(235,235,245,0.30)" stroke-width="1.5" stroke-linecap="butt"/>
<line x1="346.88" y1="789" x2="343.8" y2="789" stroke="rgba(235,235,245,0.30)" stroke-width="1.5" stroke-linecap="butt"/>
<line x1="348.878" y1="784.178" x2="346.7" y2="782" stroke="rgba(235,235,245,0.30)" stroke-width="1.5" stroke-linecap="butt"/>
<line x1="353.7" y1="782.18" x2="353.7" y2="779.1" stroke="rgba(235,235,245,0.30)" stroke-width="1.5" stroke-linecap="butt"/>
<line x1="358.522" y1="784.178" x2="360.7" y2="782" stroke="rgba(235,235,245,0.30)" stroke-width="1.5" stroke-linecap="butt"/>
<text x="353.7" y="811" font-family="'SF Pro Display','SF Pro Text',-apple-system,'Helvetica Neue',Inter,'Segoe UI',sans-serif" font-size="11" font-weight="500" fill="rgba(235,235,245,0.30)" text-anchor="middle" letter-spacing="0.1" xml:space="preserve">Settings</text>
<rect x="129.5" y="840" width="134" height="5" rx="2.5" ry="2.5" fill="#FFFFFF" opacity="0.92"/>
<rect x="20" y="126" width="353" height="132" rx="24" ry="24" fill="url(#ss)"/>
<rect x="20" y="126" width="353" height="132" rx="24" ry="24" fill="none" stroke="#BF5AF2" stroke-width="1" opacity="0.5"/>
<rect x="40.96" y="149.36" width="22.08" height="17.28" rx="4" ry="4" fill="none" stroke="#BF5AF2" stroke-width="1.9"/>
<path d="M 48.88 156.80 L 50.80 158.24 L 48.88 159.68" fill="none" stroke="#BF5AF2" stroke-width="1.9" stroke-linecap="round" stroke-linejoin="round"/>
<line x1="51.52" y1="161.6" x2="57.76" y2="161.6" stroke="#BF5AF2" stroke-width="1.9" stroke-linecap="butt"/>
<text x="76" y="163" font-family="'SF Pro Display','SF Pro Text',-apple-system,'Helvetica Neue',Inter,'Segoe UI',sans-serif" font-size="11" font-weight="400" fill="#BF5AF2" text-anchor="start" letter-spacing="1.2" xml:space="preserve">LIVE SHELL</text>
<text x="76" y="184" font-family="'SF Mono',ui-monospace,'SF Mono Text',Menlo,'Roboto Mono','DejaVu Sans Mono',monospace" font-size="16" font-weight="400" fill="#FFFFFF" text-anchor="start" letter-spacing="0.2" xml:space="preserve">192.168.1.1:23</text>
<rect x="76" y="196" width="38.4" height="19" rx="9.5" ry="9.5" fill="#BF5AF2" opacity="0.2"/>
<text x="95.2" y="209.3" font-family="'SF Pro Display','SF Pro Text',-apple-system,'Helvetica Neue',Inter,'Segoe UI',sans-serif" font-size="10" font-weight="600" fill="#BF5AF2" text-anchor="middle" letter-spacing="0.1" xml:space="preserve">ROOT</text>
<rect x="124" y="196" width="72" height="19" rx="9.5" ry="9.5" fill="#30D158" opacity="0.2"/>
<text x="160" y="209.3" font-family="'SF Pro Display','SF Pro Text',-apple-system,'Helvetica Neue',Inter,'Segoe UI',sans-serif" font-size="10" font-weight="600" fill="#30D158" text-anchor="middle" letter-spacing="0.1" xml:space="preserve">PERSISTENT</text>
<line x1="38" y1="228" x2="355" y2="228" stroke="rgba(84,84,88,0.65)" stroke-width="0.5" stroke-linecap="butt"/>
<text x="38" y="244" font-family="'SF Pro Display','SF Pro Text',-apple-system,'Helvetica Neue',Inter,'Segoe UI',sans-serif" font-size="11" font-weight="400" fill="rgba(235,235,245,0.30)" text-anchor="start" letter-spacing="0.5" xml:space="preserve">PID</text>
<text x="38" y="256" font-family="'SF Mono',ui-monospace,'SF Mono Text',Menlo,'Roboto Mono','DejaVu Sans Mono',monospace" font-size="10.5" font-weight="400" fill="rgba(235,235,245,0.60)" text-anchor="start" letter-spacing="0.2" xml:space="preserve">1</text>
<text x="143.667" y="244" font-family="'SF Pro Display','SF Pro Text',-apple-system,'Helvetica Neue',Inter,'Segoe UI',sans-serif" font-size="11" font-weight="400" fill="rgba(235,235,245,0.30)" text-anchor="start" letter-spacing="0.5" xml:space="preserve">UPTIME</text>
<text x="143.667" y="256" font-family="'SF Mono',ui-monospace,'SF Mono Text',Menlo,'Roboto Mono','DejaVu Sans Mono',monospace" font-size="10.5" font-weight="400" fill="rgba(235,235,245,0.60)" text-anchor="start" letter-spacing="0.2" xml:space="preserve">00:12:48</text>
<text x="249.333" y="244" font-family="'SF Pro Display','SF Pro Text',-apple-system,'Helvetica Neue',Inter,'Segoe UI',sans-serif" font-size="11" font-weight="400" fill="rgba(235,235,245,0.30)" text-anchor="start" letter-spacing="0.5" xml:space="preserve">IFACE</text>
<text x="249.333" y="256" font-family="'SF Mono',ui-monospace,'SF Mono Text',Menlo,'Roboto Mono','DejaVu Sans Mono',monospace" font-size="10.5" font-weight="400" fill="rgba(235,235,245,0.60)" text-anchor="start" letter-spacing="0.2" xml:space="preserve">ppp0</text>
<text x="20" y="278" font-family="'SF Pro Display','SF Pro Text',-apple-system,'Helvetica Neue',Inter,'Segoe UI',sans-serif" font-size="11" font-weight="400" fill="rgba(235,235,245,0.60)" text-anchor="start" letter-spacing="0.8" xml:space="preserve">ACTIVE</text>
<rect x="20" y="290" width="353" height="72" rx="18" ry="18" fill="#1C1C1E"/>
<rect x="34" y="308" width="36" height="36" rx="10" ry="10" fill="#BF5AF2" opacity="0.18"/>
<rect x="42.32" y="321.6" width="19.36" height="9.24" rx="4" ry="4" fill="none" stroke="#BF5AF2" stroke-width="1.8"/>
<circle cx="46.28" cy="326" r="1.1" fill="#BF5AF2"/>
<circle cx="49.8" cy="326" r="1.1" fill="#BF5AF2"/>
<path d="M 53.71 327.66 A 2.86 2.86 0 0 1 59.09 327.66" fill="none" stroke="#BF5AF2" stroke-width="1.4400000000000002" stroke-linecap="round" stroke-linejoin="round"/>
<path d="M 51.44 326.83 A 5.28 5.28 0 0 1 61.36 326.83" fill="none" stroke="#BF5AF2" stroke-width="1.4400000000000002" stroke-linecap="round" stroke-linejoin="round"/>
<text x="82" y="318" font-family="'SF Mono',ui-monospace,'SF Mono Text',Menlo,'Roboto Mono','DejaVu Sans Mono',monospace" font-size="12.5" font-weight="400" fill="#FFFFFF" text-anchor="start" letter-spacing="0.2" xml:space="preserve">192.168.1.1</text>
<text x="82" y="336" font-family="'SF Pro Display','SF Pro Text',-apple-system,'Helvetica Neue',Inter,'Segoe UI',sans-serif" font-size="13" font-weight="400" fill="rgba(235,235,245,0.60)" text-anchor="start" letter-spacing="-0.08" xml:space="preserve">Telnet · admin</text>
<text x="82" y="352" font-family="'SF Pro Display','SF Pro Text',-apple-system,'Helvetica Neue',Inter,'Segoe UI',sans-serif" font-size="11" font-weight="400" fill="#30D158" text-anchor="start" letter-spacing="0.06" xml:space="preserve">root</text>
<text x="359" y="318" font-family="'SF Pro Display','SF Pro Text',-apple-system,'Helvetica Neue',Inter,'Segoe UI',sans-serif" font-size="11" font-weight="400" fill="rgba(235,235,245,0.60)" text-anchor="end" letter-spacing="0.06" xml:space="preserve">00:12:48</text>
<text x="359" y="340" font-family="'SF Pro Display','SF Pro Text',-apple-system,'Helvetica Neue',Inter,'Segoe UI',sans-serif" font-size="10" font-weight="600" fill="#30D158" text-anchor="end" letter-spacing="0.5" xml:space="preserve">OPEN</text>
<circle cx="333" cy="337" r="3" fill="#30D158"/>
<rect x="20" y="370" width="353" height="72" rx="18" ry="18" fill="#1C1C1E"/>
<rect x="34" y="388" width="36" height="36" rx="10" ry="10" fill="#BF5AF2" opacity="0.18"/>
<rect x="44.52" y="398.52" width="14.96" height="10.12" rx="3" ry="3" fill="none" stroke="#BF5AF2" stroke-width="1.8"/>
<path d="M 46.94 407.32 L 57.06 407.32 L 56.18 408.86 L 47.82 408.86 Z" fill="none" stroke="#BF5AF2" stroke-width="1.8" stroke-linecap="round" stroke-linejoin="round"/>
<text x="82" y="398" font-family="'SF Mono',ui-monospace,'SF Mono Text',Menlo,'Roboto Mono','DejaVu Sans Mono',monospace" font-size="12.5" font-weight="400" fill="#FFFFFF" text-anchor="start" letter-spacing="0.2" xml:space="preserve">192.168.1.77</text>
<text x="82" y="416" font-family="'SF Pro Display','SF Pro Text',-apple-system,'Helvetica Neue',Inter,'Segoe UI',sans-serif" font-size="13" font-weight="400" fill="rgba(235,235,245,0.60)" text-anchor="start" letter-spacing="-0.08" xml:space="preserve">SMB · PSExec</text>
<text x="82" y="432" font-family="'SF Pro Display','SF Pro Text',-apple-system,'Helvetica Neue',Inter,'Segoe UI',sans-serif" font-size="11" font-weight="400" fill="#30D158" text-anchor="start" letter-spacing="0.06" xml:space="preserve">SYSTEM</text>
<text x="359" y="398" font-family="'SF Pro Display','SF Pro Text',-apple-system,'Helvetica Neue',Inter,'Segoe UI',sans-serif" font-size="11" font-weight="400" fill="rgba(235,235,245,0.60)" text-anchor="end" letter-spacing="0.06" xml:space="preserve">00:04:02</text>
<text x="359" y="420" font-family="'SF Pro Display','SF Pro Text',-apple-system,'Helvetica Neue',Inter,'Segoe UI',sans-serif" font-size="10" font-weight="600" fill="#30D158" text-anchor="end" letter-spacing="0.5" xml:space="preserve">OPEN</text>
<circle cx="333" cy="417" r="3" fill="#30D158"/>
<rect x="20" y="450" width="353" height="72" rx="18" ry="18" fill="#1C1C1E"/>
<rect x="34" y="468" width="36" height="36" rx="10" ry="10" fill="#BF5AF2" opacity="0.18"/>
<rect x="42.76" y="480.72" width="18.48" height="11.88" rx="5" ry="5" fill="none" stroke="#BF5AF2" stroke-width="1.8"/>
<path d="M 49.80 483.36 L 50.90 482.04 L 53.10 482.04 L 54.20 483.36" fill="none" stroke="#BF5AF2" stroke-width="1.8" stroke-linecap="round" stroke-linejoin="round"/>
<circle cx="52" cy="486.66" r="3.3" fill="none" stroke="#BF5AF2" stroke-width="1.8"/>
<text x="82" y="478" font-family="'SF Mono',ui-monospace,'SF Mono Text',Menlo,'Roboto Mono','DejaVu Sans Mono',monospace" font-size="12.5" font-weight="400" fill="#FFFFFF" text-anchor="start" letter-spacing="0.2" xml:space="preserve">192.168.1.142</text>
<text x="82" y="496" font-family="'SF Pro Display','SF Pro Text',-apple-system,'Helvetica Neue',Inter,'Segoe UI',sans-serif" font-size="13" font-weight="400" fill="rgba(235,235,245,0.60)" text-anchor="start" letter-spacing="-0.08" xml:space="preserve">HTTP · CSRF</text>
<text x="82" y="512" font-family="'SF Pro Display','SF Pro Text',-apple-system,'Helvetica Neue',Inter,'Segoe UI',sans-serif" font-size="11" font-weight="400" fill="#FF9F0A" text-anchor="start" letter-spacing="0.06" xml:space="preserve">guest</text>
<text x="359" y="478" font-family="'SF Pro Display','SF Pro Text',-apple-system,'Helvetica Neue',Inter,'Segoe UI',sans-serif" font-size="11" font-weight="400" fill="rgba(235,235,245,0.60)" text-anchor="end" letter-spacing="0.06" xml:space="preserve">00:00:51</text>
<text x="359" y="500" font-family="'SF Pro Display','SF Pro Text',-apple-system,'Helvetica Neue',Inter,'Segoe UI',sans-serif" font-size="10" font-weight="600" fill="#FF9F0A" text-anchor="end" letter-spacing="0.5" xml:space="preserve">OPEN</text>
<circle cx="333" cy="497" r="3" fill="#FF9F0A"/>
<rect x="20" y="536" width="171.5" height="46" rx="13" ry="13" fill="#BF5AF2" opacity="0.18"/>
<line x1="46.955" y1="559" x2="55.795" y2="559" stroke="#BF5AF2" stroke-width="1.35" stroke-linecap="butt"/>
<line x1="51.375" y1="554.58" x2="51.375" y2="563.42" stroke="#BF5AF2" stroke-width="1.35" stroke-linecap="butt"/>
<text x="115.75" y="564" font-family="'SF Pro Display','SF Pro Text',-apple-system,'Helvetica Neue',Inter,'Segoe UI',sans-serif" font-size="15" font-weight="600" fill="#BF5AF2" text-anchor="start" letter-spacing="0.1" xml:space="preserve">New Session</text>
<rect x="201.5" y="536" width="171.5" height="46" rx="13" ry="13" fill="#2C2C2E"/>
<text x="287.25" y="564" font-family="'SF Pro Display','SF Pro Text',-apple-system,'Helvetica Neue',Inter,'Segoe UI',sans-serif" font-size="15" font-weight="600" fill="#FFFFFF" text-anchor="middle" letter-spacing="0.1" xml:space="preserve">Export</text>
</svg>
