<svg xmlns="http://www.w3.org/2000/svg" xmlns:inkscape="http://www.inkscape.org/namespaces/inkscape" xmlns:sodipodi="http://sodipodi.sourceforge.net/DTD/sodipodi-0.dtd" version="1.1" inkscape:version="1.4.2" width="393pt" height="852pt" viewBox="0 0 393 852">
<title id="tt">ZEROSPLOIT</title>
<sodipodi:namedview id="nv" inkscape:document-units="pt" pagecolor="#000000" bordercolor="#666666" inkscape:pagecheckerboard="false" inkscape:zoom="0.5" inkscape:cx="196" inkscape:cy="426"/>
<defs id="zsdefs"><linearGradient id="grad1" x1="0" y1="0" x2="0" y2="1"><stop offset="0" stop-color="#1C1C1E" stop-opacity="0.0"/><stop offset="0.5" stop-color="#1C1C1E" stop-opacity="0.92"/><stop offset="1" stop-color="#1C1C1E" stop-opacity="1.0"/></linearGradient><linearGradient id="wk" x1="0" y1="0" x2="0" y2="1"><stop offset="0" stop-color="#2E2A0E"/><stop offset="1" stop-color="#0E0D08"/></linearGradient></defs>
<rect x="0" y="0" width="393" height="852" rx="0" ry="0" fill="#000000"/>
<text x="29" y="35" font-family="'SF Pro Display','SF Pro Text',-apple-system,'Helvetica Neue',Inter,'Segoe UI',sans-serif" font-size="15" font-weight="600" fill="#FFFFFF" text-anchor="start" letter-spacing="0" xml:space="preserve">9:41</text>
<rect x="126" y="11" width="141" height="37" rx="19" ry="19" fill="#000"/>
<circle cx="213" cy="29.5" r="4.5" fill="#1C1C1E"/>
<rect x="288" y="31" width="3.4" height="4" rx="1.1" ry="1.1" fill="#FFFFFF"/>
<rect x="293" y="28.5" width="3.4" height="6.5" rx="1.1" ry="1.1" fill="#FFFFFF"/>
<rect x="298" y="26" width="3.4" height="9" rx="1.1" ry="1.1" fill="#FFFFFF"/>
<rect x="303" y="23.5" width="3.4" height="11.5" rx="1.1" ry="1.1" fill="#FFFFFF"/>
<path d="M 325.8 27.5 A 6.4 6.4 0 0 1 332.2 27.5" fill="none" stroke="#FFFFFF" stroke-width="1.7" stroke-linecap="round" stroke-linejoin="round"/>
<path d="M 322.4 27.7 A 13.2 13.2 0 0 1 335.6 27.5" fill="none" stroke="#FFFFFF" stroke-width="1.7" stroke-linecap="round" stroke-linejoin="round"/>
<path d="M 319 27.9 A 20 20 0 0 1 339 27.5" fill="none" stroke="#FFFFFF" stroke-width="1.7" stroke-linecap="round" stroke-linejoin="round"/>
<circle cx="329" cy="32.2" r="1.5" fill="#FFFFFF"/>
<rect x="340" y="24" width="22" height="11" rx="3.4" ry="3.4" fill="none" stroke="#FFFFFF" stroke-width="1" opacity="0.4"/>
<rect x="342" y="26" width="14" height="7" rx="2" ry="2" fill="#FFFFFF"/>
<rect x="363.5" y="27.4" width="1.6" height="4.2" rx="0.8" ry="0.8" fill="#FFFFFF" opacity="0.4"/>
<text x="20" y="82" font-family="'SF Pro Display','SF Pro Text',-apple-system,'Helvetica Neue',Inter,'Segoe UI',sans-serif" font-size="34" font-weight="700" fill="#FFFFFF" text-anchor="start" letter-spacing="-0.4" xml:space="preserve">Wi-Fi Kill</text>
<text x="20" y="100" font-family="'SF Pro Display','SF Pro Text',-apple-system,'Helvetica Neue',Inter,'Segoe UI',sans-serif" font-size="13" font-weight="400" fill="rgba(235,235,245,0.60)" text-anchor="start" letter-spacing="-0.08" xml:space="preserve">monitor mode required</text>
<rect x="0" y="763" width="393" height="89" rx="0" ry="0" fill="#000000"/>
<rect x="0" y="769" width="393" height="49" rx="0" ry="0" fill="url(#grad1)"/>
<line x1="0" y1="769" x2="393" y2="769" stroke="rgba(84,84,88,0.65)" stroke-width="0.5" stroke-linecap="butt"/>
<circle cx="39.3" cy="789" r="8.58" fill="none" stroke="rgba(235,235,245,0.30)" stroke-width="1.6"/>
<circle cx="39.3" cy="789" r="3.96" fill="none" stroke="rgba(235,235,245,0.30)" stroke-width="1.6" opacity="0.75"/>
<line x1="39.3" y1="789" x2="45.46" y2="782.84" stroke="rgba(235,235,245,0.30)" stroke-width="1.6" stroke-linecap="butt"/>
<text x="39.3" y="811" font-family="'SF Pro Display','SF Pro Text',-apple-system,'Helvetica Neue',Inter,'Segoe UI',sans-serif" font-size="11" font-weight="500" fill="rgba(235,235,245,0.30)" text-anchor="middle" letter-spacing="0.1" xml:space="preserve">Scan</text>
<rect x="108.55" y="780.75" width="10.45" height="11.55" rx="2" ry="2" fill="none" stroke="rgba(235,235,245,0.30)" stroke-width="1.6"/>
<rect x="119.55" y="785.7" width="7.7" height="13.2" rx="2" ry="2" fill="none" stroke="rgba(235,235,245,0.30)" stroke-width="1.6"/>
<text x="117.9" y="811" font-family="'SF Pro Display','SF Pro Text',-apple-system,'Helvetica Neue',Inter,'Segoe UI',sans-serif" font-size="11" font-weight="500" fill="rgba(235,235,245,0.30)" text-anchor="middle" letter-spacing="0.1" xml:space="preserve">Targets</text>
<rect x="186.6" y="780.75" width="19.8" height="16.5" rx="2.6" ry="2.6" fill="none" stroke="rgba(235,235,245,0.30)" stroke-width="1.6"/>
<polygon points="191.55,786.8 195.95,789.88 191.55,792.96" fill="none" stroke="rgba(235,235,245,0.30)" stroke-width="1.6" stroke-linejoin="round" stroke-linecap="round"/>
<line x1="197.05" y1="792.96" x2="202" y2="792.96" stroke="rgba(235,235,245,0.30)" stroke-width="1.6" stroke-linecap="butt"/>
<text x="196.5" y="811" font-family="'SF Pro Display','SF Pro Text',-apple-system,'Helvetica Neue',Inter,'Segoe UI',sans-serif" font-size="11" font-weight="500" fill="rgba(235,235,245,0.30)" text-anchor="middle" letter-spacing="0.1" xml:space="preserve">Sessions</text>
<line x1="265.2" y1="797.25" x2="265.2" y2="782.4" stroke="rgba(235,235,245,0.30)" stroke-width="1.6" stroke-linecap="butt"/>
<line x1="270.15" y1="797.25" x2="270.15" y2="789" stroke="rgba(235,235,245,0.30)" stroke-width="1.6" stroke-linecap="butt"/>
<line x1="275.1" y1="797.25" x2="275.1" y2="777.45" stroke="rgba(235,235,245,0.30)" stroke-width="1.6" stroke-linecap="butt"/>
<line x1="280.05" y1="797.25" x2="280.05" y2="786.525" stroke="rgba(235,235,245,0.30)" stroke-width="1.6" stroke-linecap="butt"/>
<line x1="285" y1="797.25" x2="285" y2="780.75" stroke="rgba(235,235,245,0.30)" stroke-width="1.6" stroke-linecap="butt"/>
<text x="275.1" y="811" font-family="'SF Pro Display','SF Pro Text',-apple-system,'Helvetica Neue',Inter,'Segoe UI',sans-serif" font-size="11" font-weight="500" fill="rgba(235,235,245,0.30)" text-anchor="middle" letter-spacing="0.1" xml:space="preserve">Logs</text>
<circle cx="353.7" cy="789" r="4.62" fill="none" stroke="#0A84FF" stroke-width="1.7"/>
<line x1="360.52" y1="789" x2="363.6" y2="789" stroke="#0A84FF" stroke-width="1.5" stroke-linecap="butt"/>
<line x1="358.522" y1="793.822" x2="360.7" y2="796" stroke="#0A84FF" stroke-width="1.5" stroke-linecap="butt"/>
<line x1="353.7" y1="795.82" x2="353.7" y2="798.9" stroke="#0A84FF" stroke-width="1.5" stroke-linecap="butt"/>
<line x1="348.878" y1="793.822" x2="346.7" y2="796" stroke="#0A84FF" stroke-width="1.5" stroke-linecap="butt"/>
<line x1="346.88" y1="789" x2="343.8" y2="789" stroke="#0A84FF" stroke-width="1.5" stroke-linecap="butt"/>
<line x1="348.878" y1="784.178" x2="346.7" y2="782" stroke="#0A84FF" stroke-width="1.5" stroke-linecap="butt"/>
<line x1="353.7" y1="782.18" x2="353.7" y2="779.1" stroke="#0A84FF" stroke-width="1.5" stroke-linecap="butt"/>
<line x1="358.522" y1="784.178" x2="360.7" y2="782" stroke="#0A84FF" stroke-width="1.5" stroke-linecap="butt"/>
<text x="353.7" y="811" font-family="'SF Pro Display','SF Pro Text',-apple-system,'Helvetica Neue',Inter,'Segoe UI',sans-serif" font-size="11" font-weight="500" fill="#0A84FF" text-anchor="middle" letter-spacing="0.1" xml:space="preserve">Settings</text>
<rect x="129.5" y="840" width="134" height="5" rx="2.5" ry="2.5" fill="#FFFFFF" opacity="0.92"/>
<rect x="20" y="126" width="353" height="112" rx="24" ry="24" fill="url(#wk)"/>
<rect x="20" y="126" width="353" height="112" rx="24" ry="24" fill="none" stroke="#FFD60A" stroke-width="1" opacity="0.5"/>
<path d="M 54.80 171.60 A 6.00 6.00 0 0 1 65.20 171.60" fill="none" stroke="#FFD60A" stroke-width="2.2" stroke-linecap="round" stroke-linejoin="round"/>
<path d="M 50.65 169.20 A 10.80 10.80 0 0 1 69.35 169.20" fill="none" stroke="#FFD60A" stroke-width="2.2" stroke-linecap="round" stroke-linejoin="round"/>
<path d="M 46.49 166.80 A 15.60 15.60 0 0 1 73.51 166.80" fill="none" stroke="#FFD60A" stroke-width="2.2" stroke-linecap="round" stroke-linejoin="round"/>
<circle cx="60" cy="175.8" r="1.5" fill="#FFD60A"/>
<line x1="47.4" y1="155.4" x2="72.6" y2="180.6" stroke="#FFD60A" stroke-width="2.75" stroke-linecap="butt"/>
<text x="96" y="164" font-family="'SF Pro Display','SF Pro Text',-apple-system,'Helvetica Neue',Inter,'Segoe UI',sans-serif" font-size="12" font-weight="600" fill="#FFD60A" text-anchor="start" letter-spacing="0.5" xml:space="preserve">NOT IN MONITOR MODE</text>
<text x="96" y="184" font-family="'SF Pro Display','SF Pro Text',-apple-system,'Helvetica Neue',Inter,'Segoe UI',sans-serif" font-size="13" font-weight="400" fill="rgba(235,235,245,0.60)" text-anchor="start" letter-spacing="-0.08" xml:space="preserve">wlan0 · managed mode</text>
<rect x="40" y="198" width="313" height="30" rx="13" ry="13" fill="#FFD60A" opacity="0.18"/>
<text x="196.5" y="218" font-family="'SF Pro Display','SF Pro Text',-apple-system,'Helvetica Neue',Inter,'Segoe UI',sans-serif" font-size="15" font-weight="600" fill="#FFD60A" text-anchor="middle" letter-spacing="0.1" xml:space="preserve">Switch to monitor mode</text>
<text x="20" y="234" font-family="'SF Pro Display','SF Pro Text',-apple-system,'Helvetica Neue',Inter,'Segoe UI',sans-serif" font-size="11" font-weight="400" fill="rgba(235,235,245,0.60)" text-anchor="start" letter-spacing="0.6" xml:space="preserve">RADIO</text>
<rect x="20" y="264" width="353" height="178" rx="18" ry="18" fill="#1C1C1E"/>
<g transform="translate(20,269.00)">
<rect x="0" y="6" width="30" height="30" rx="7.5" ry="7.5" fill="#FFD60A" opacity="0.9"/>
<line x1="15" y1="28.6" x2="15" y2="22.9" stroke="#FFFFFF" stroke-width="1.425" stroke-linecap="butt"/>
<path d="M 12.14 21.86 A 3.04 3.04 0 0 1 17.86 21.86" fill="none" stroke="#FFFFFF" stroke-width="1.2825" stroke-linecap="round" stroke-linejoin="round"/>
<path d="M 9.64 20.95 A 5.70 5.70 0 0 1 20.36 20.95" fill="none" stroke="#FFFFFF" stroke-width="1.2825" stroke-linecap="round" stroke-linejoin="round"/>
<path d="M 7.14 20.04 A 8.36 8.36 0 0 1 22.86 20.04" fill="none" stroke="#FFFFFF" stroke-width="1.2825" stroke-linecap="round" stroke-linejoin="round"/>
<circle cx="15" cy="23.28" r="0.95" fill="#FFFFFF"/>
<path d="M 345 16.0 L 351.5 21.0 L 345 26.0" fill="none" stroke="rgba(235,235,245,0.30)" stroke-width="2" stroke-linecap="round" stroke-linejoin="round"/>
<text x="337" y="25.5" font-family="'SF Mono',ui-monospace,'SF Mono Text',Menlo,'Roboto Mono','DejaVu Sans Mono',monospace" font-size="13" font-weight="400" fill="rgba(235,235,245,0.60)" text-anchor="end" letter-spacing="0.2" xml:space="preserve">wlan0</text>
<text x="42" y="26.5" font-family="'SF Pro Display','SF Pro Text',-apple-system,'Helvetica Neue',Inter,'Segoe UI',sans-serif" font-size="17" font-weight="400" fill="#FFFFFF" text-anchor="start" letter-spacing="-0.41" xml:space="preserve">Interface</text>
</g>
<line x1="36" y1="311" x2="357" y2="311" stroke="rgba(84,84,88,0.65)" stroke-width="0.5" stroke-linecap="butt"/>
<g transform="translate(20,311.00)">
<rect x="0" y="6" width="30" height="30" rx="7.5" ry="7.5" fill="#FFD60A" opacity="0.9"/>
<path d="M 11.71 23.28 A 3.80 3.80 0 0 1 18.29 23.28" fill="none" stroke="#FFFFFF" stroke-width="1.425" stroke-linecap="round" stroke-linejoin="round"/>
<path d="M 9.08 21.76 A 6.84 6.84 0 0 1 20.92 21.76" fill="none" stroke="#FFFFFF" stroke-width="1.425" stroke-linecap="round" stroke-linejoin="round"/>
<path d="M 6.44 20.24 A 9.88 9.88 0 0 1 23.56 20.24" fill="none" stroke="#FFFFFF" stroke-width="1.425" stroke-linecap="round" stroke-linejoin="round"/>
<circle cx="15" cy="25.94" r="0.95" fill="#FFFFFF"/>
<path d="M 345 16.0 L 351.5 21.0 L 345 26.0" fill="none" stroke="rgba(235,235,245,0.30)" stroke-width="2" stroke-linecap="round" stroke-linejoin="round"/>
<text x="337" y="25.5" font-family="'SF Mono',ui-monospace,'SF Mono Text',Menlo,'Roboto Mono','DejaVu Sans Mono',monospace" font-size="13" font-weight="400" fill="rgba(235,235,245,0.60)" text-anchor="end" letter-spacing="0.2" xml:space="preserve">auto hop</text>
<text x="42" y="26.5" font-family="'SF Pro Display','SF Pro Text',-apple-system,'Helvetica Neue',Inter,'Segoe UI',sans-serif" font-size="17" font-weight="400" fill="#FFFFFF" text-anchor="start" letter-spacing="-0.41" xml:space="preserve">Channel</text>
</g>
<line x1="36" y1="353" x2="357" y2="353" stroke="rgba(84,84,88,0.65)" stroke-width="0.5" stroke-linecap="butt"/>
<g transform="translate(20,353.00)">
<rect x="0" y="6" width="30" height="30" rx="7.5" ry="7.5" fill="#FFD60A" opacity="0.9"/>
<circle cx="9.3" cy="16.82" r="0.855" fill="#FFFFFF"/>
<line x1="11.58" y1="16.82" x2="21.46" y2="16.82" stroke="#FFFFFF" stroke-width="1.425" stroke-linecap="butt"/>
<circle cx="9.3" cy="21" r="0.855" fill="#FFFFFF"/>
<line x1="11.58" y1="21" x2="21.46" y2="21" stroke="#FFFFFF" stroke-width="1.425" stroke-linecap="butt"/>
<circle cx="9.3" cy="25.18" r="0.855" fill="#FFFFFF"/>
<line x1="11.58" y1="25.18" x2="21.46" y2="25.18" stroke="#FFFFFF" stroke-width="1.425" stroke-linecap="butt"/>
<path d="M 345 16.0 L 351.5 21.0 L 345 26.0" fill="none" stroke="rgba(235,235,245,0.30)" stroke-width="2" stroke-linecap="round" stroke-linejoin="round"/>
<text x="337" y="26.5" font-family="'SF Pro Display','SF Pro Text',-apple-system,'Helvetica Neue',Inter,'Segoe UI',sans-serif" font-size="17" font-weight="400" fill="rgba(235,235,245,0.60)" text-anchor="end" letter-spacing="-0.41" xml:space="preserve">deauth + auth</text>
<text x="42" y="26.5" font-family="'SF Pro Display','SF Pro Text',-apple-system,'Helvetica Neue',Inter,'Segoe UI',sans-serif" font-size="17" font-weight="400" fill="#FFFFFF" text-anchor="start" letter-spacing="-0.41" xml:space="preserve">Frame type</text>
</g>
<line x1="36" y1="395" x2="357" y2="395" stroke="rgba(84,84,88,0.65)" stroke-width="0.5" stroke-linecap="butt"/>
<g transform="translate(20,395.00)">
<rect x="0" y="6" width="30" height="30" rx="7.5" ry="7.5" fill="#FFD60A" opacity="0.9"/>
<circle cx="15" cy="21" r="7.6" fill="none" stroke="#FFFFFF" stroke-width="1.425"/>
<line x1="15" y1="21" x2="15" y2="16.82" stroke="#FFFFFF" stroke-width="1.425" stroke-linecap="butt"/>
<line x1="15" y1="21" x2="18.04" y2="22.52" stroke="#FFFFFF" stroke-width="1.425" stroke-linecap="butt"/>
<path d="M 345 16.0 L 351.5 21.0 L 345 26.0" fill="none" stroke="rgba(235,235,245,0.30)" stroke-width="2" stroke-linecap="round" stroke-linejoin="round"/>
<text x="337" y="25.5" font-family="'SF Mono',ui-monospace,'SF Mono Text',Menlo,'Roboto Mono','DejaVu Sans Mono',monospace" font-size="13" font-weight="400" fill="rgba(235,235,245,0.60)" text-anchor="end" letter-spacing="0.2" xml:space="preserve">10 ms</text>
<text x="42" y="26.5" font-family="'SF Pro Display','SF Pro Text',-apple-system,'Helvetica Neue',Inter,'Segoe UI',sans-serif" font-size="17" font-weight="400" fill="#FFFFFF" text-anchor="start" letter-spacing="-0.41" xml:space="preserve">Interval</text>
</g>
<text x="20" y="458" font-family="'SF Pro Display','SF Pro Text',-apple-system,'Helvetica Neue',Inter,'Segoe UI',sans-serif" font-size="11" font-weight="400" fill="rgba(235,235,245,0.60)" text-anchor="start" letter-spacing="0.8" xml:space="preserve">NETWORKS IN RANGE</text>
<rect x="20" y="470" width="353" height="54" rx="18" ry="18" fill="#1C1C1E"/>
<rect x="34" y="487" width="20" height="20" rx="6" ry="6" fill="#30D158" opacity="0.22"/>
<path d="M 41.75 498.56 A 2.60 2.60 0 0 1 46.25 498.56" fill="none" stroke="#30D158" stroke-width="1.5" stroke-linecap="round" stroke-linejoin="round"/>
<path d="M 39.95 497.52 A 4.68 4.68 0 0 1 48.05 497.52" fill="none" stroke="#30D158" stroke-width="1.5" stroke-linecap="round" stroke-linejoin="round"/>
<path d="M 38.15 496.48 A 6.76 6.76 0 0 1 49.85 496.48" fill="none" stroke="#30D158" stroke-width="1.5" stroke-linecap="round" stroke-linejoin="round"/>
<circle cx="44" cy="500.38" r="0.65" fill="#30D158"/>
<text x="66" y="495" font-family="'SF Pro Display','SF Pro Text',-apple-system,'Helvetica Neue',Inter,'Segoe UI',sans-serif" font-size="15" font-weight="400" fill="#FFFFFF" text-anchor="start" letter-spacing="-0.24" xml:space="preserve">FLOOR-5G</text>
<text x="66" y="511" font-family="'SF Mono',ui-monospace,'SF Mono Text',Menlo,'Roboto Mono','DejaVu Sans Mono',monospace" font-size="10" font-weight="400" fill="rgba(235,235,245,0.30)" text-anchor="start" letter-spacing="0.2" xml:space="preserve">a1:b2:c3:d4:e5:f6</text>
<rect x="257" y="498" width="4.5" height="5" rx="1.5" ry="1.5" fill="#30D158"/>
<rect x="264" y="494.5" width="4.5" height="8.5" rx="1.5" ry="1.5" fill="#30D158"/>
<rect x="271" y="491" width="4.5" height="12" rx="1.5" ry="1.5" fill="#30D158"/>
<rect x="278" y="487.5" width="4.5" height="15.5" rx="1.5" ry="1.5" fill="rgba(120,120,128,0.24)"/>
<text x="359" y="495" font-family="'SF Pro Display','SF Pro Text',-apple-system,'Helvetica Neue',Inter,'Segoe UI',sans-serif" font-size="10" font-weight="600" fill="#30D158" text-anchor="end" letter-spacing="0.4" xml:space="preserve">WPA2</text>
<text x="359" y="511" font-family="'SF Pro Display','SF Pro Text',-apple-system,'Helvetica Neue',Inter,'Segoe UI',sans-serif" font-size="11" font-weight="400" fill="rgba(235,235,245,0.30)" text-anchor="end" letter-spacing="0.06" xml:space="preserve">ch 6</text>
<rect x="20" y="530" width="353" height="54" rx="18" ry="18" fill="#1C1C1E"/>
<rect x="34" y="547" width="20" height="20" rx="6" ry="6" fill="#30D158" opacity="0.22"/>
<path d="M 41.75 558.56 A 2.60 2.60 0 0 1 46.25 558.56" fill="none" stroke="#30D158" stroke-width="1.5" stroke-linecap="round" stroke-linejoin="round"/>
<path d="M 39.95 557.52 A 4.68 4.68 0 0 1 48.05 557.52" fill="none" stroke="#30D158" stroke-width="1.5" stroke-linecap="round" stroke-linejoin="round"/>
<path d="M 38.15 556.48 A 6.76 6.76 0 0 1 49.85 556.48" fill="none" stroke="#30D158" stroke-width="1.5" stroke-linecap="round" stroke-linejoin="round"/>
<circle cx="44" cy="560.38" r="0.65" fill="#30D158"/>
<text x="66" y="555" font-family="'SF Pro Display','SF Pro Text',-apple-system,'Helvetica Neue',Inter,'Segoe UI',sans-serif" font-size="15" font-weight="400" fill="#FFFFFF" text-anchor="start" letter-spacing="-0.24" xml:space="preserve">Rumah-2.4G</text>
<text x="66" y="571" font-family="'SF Mono',ui-monospace,'SF Mono Text',Menlo,'Roboto Mono','DejaVu Sans Mono',monospace" font-size="10" font-weight="400" fill="rgba(235,235,245,0.30)" text-anchor="start" letter-spacing="0.2" xml:space="preserve">00:11:22:33:44:55</text>
<rect x="257" y="558" width="4.5" height="5" rx="1.5" ry="1.5" fill="#30D158"/>
<rect x="264" y="554.5" width="4.5" height="8.5" rx="1.5" ry="1.5" fill="#30D158"/>
<rect x="271" y="551" width="4.5" height="12" rx="1.5" ry="1.5" fill="rgba(120,120,128,0.24)"/>
<rect x="278" y="547.5" width="4.5" height="15.5" rx="1.5" ry="1.5" fill="rgba(120,120,128,0.24)"/>
<text x="359" y="555" font-family="'SF Pro Display','SF Pro Text',-apple-system,'Helvetica Neue',Inter,'Segoe UI',sans-serif" font-size="10" font-weight="600" fill="#30D158" text-anchor="end" letter-spacing="0.4" xml:space="preserve">WPA2</text>
<text x="359" y="571" font-family="'SF Pro Display','SF Pro Text',-apple-system,'Helvetica Neue',Inter,'Segoe UI',sans-serif" font-size="11" font-weight="400" fill="rgba(235,235,245,0.30)" text-anchor="end" letter-spacing="0.06" xml:space="preserve">ch 1</text>
<rect x="20" y="590" width="353" height="54" rx="18" ry="18" fill="#1C1C1E"/>
<rect x="34" y="607" width="20" height="20" rx="6" ry="6" fill="#FF9F0A" opacity="0.22"/>
<path d="M 41.75 618.56 A 2.60 2.60 0 0 1 46.25 618.56" fill="none" stroke="#FF9F0A" stroke-width="1.5" stroke-linecap="round" stroke-linejoin="round"/>
<path d="M 39.95 617.52 A 4.68 4.68 0 0 1 48.05 617.52" fill="none" stroke="#FF9F0A" stroke-width="1.5" stroke-linecap="round" stroke-linejoin="round"/>
<path d="M 38.15 616.48 A 6.76 6.76 0 0 1 49.85 616.48" fill="none" stroke="#FF9F0A" stroke-width="1.5" stroke-linecap="round" stroke-linejoin="round"/>
<circle cx="44" cy="620.38" r="0.65" fill="#FF9F0A"/>
<text x="66" y="615" font-family="'SF Pro Display','SF Pro Text',-apple-system,'Helvetica Neue',Inter,'Segoe UI',sans-serif" font-size="15" font-weight="400" fill="#FFFFFF" text-anchor="start" letter-spacing="-0.24" xml:space="preserve">FreeWiFi_Guest</text>
<text x="66" y="631" font-family="'SF Mono',ui-monospace,'SF Mono Text',Menlo,'Roboto Mono','DejaVu Sans Mono',monospace" font-size="10" font-weight="400" fill="rgba(235,235,245,0.30)" text-anchor="start" letter-spacing="0.2" xml:space="preserve">9f:8e:7d:6c:5b:4a</text>
<rect x="257" y="618" width="4.5" height="5" rx="1.5" ry="1.5" fill="#FF9F0A"/>
<rect x="264" y="614.5" width="4.5" height="8.5" rx="1.5" ry="1.5" fill="rgba(120,120,128,0.24)"/>
<rect x="271" y="611" width="4.5" height="12" rx="1.5" ry="1.5" fill="rgba(120,120,128,0.24)"/>
<rect x="278" y="607.5" width="4.5" height="15.5" rx="1.5" ry="1.5" fill="rgba(120,120,128,0.24)"/>
<text x="359" y="615" font-family="'SF Pro Display','SF Pro Text',-apple-system,'Helvetica Neue',Inter,'Segoe UI',sans-serif" font-size="10" font-weight="600" fill="#FF9F0A" text-anchor="end" letter-spacing="0.4" xml:space="preserve">OPEN</text>
<text x="359" y="631" font-family="'SF Pro Display','SF Pro Text',-apple-system,'Helvetica Neue',Inter,'Segoe UI',sans-serif" font-size="11" font-weight="400" fill="rgba(235,235,245,0.30)" text-anchor="end" letter-spacing="0.06" xml:space="preserve">ch 11</text>
<rect x="20" y="650" width="353" height="54" rx="18" ry="18" fill="#1C1C1E"/>
<rect x="34" y="667" width="20" height="20" rx="6" ry="6" fill="#0A84FF" opacity="0.22"/>
<path d="M 41.75 678.56 A 2.60 2.60 0 0 1 46.25 678.56" fill="none" stroke="#0A84FF" stroke-width="1.5" stroke-linecap="round" stroke-linejoin="round"/>
<path d="M 39.95 677.52 A 4.68 4.68 0 0 1 48.05 677.52" fill="none" stroke="#0A84FF" stroke-width="1.5" stroke-linecap="round" stroke-linejoin="round"/>
<path d="M 38.15 676.48 A 6.76 6.76 0 0 1 49.85 676.48" fill="none" stroke="#0A84FF" stroke-width="1.5" stroke-linecap="round" stroke-linejoin="round"/>
<circle cx="44" cy="680.38" r="0.65" fill="#0A84FF"/>
<text x="66" y="675" font-family="'SF Pro Display','SF Pro Text',-apple-system,'Helvetica Neue',Inter,'Segoe UI',sans-serif" font-size="15" font-weight="400" fill="#FFFFFF" text-anchor="start" letter-spacing="-0.24" xml:space="preserve">H3C-Office</text>
<text x="66" y="691" font-family="'SF Mono',ui-monospace,'SF Mono Text',Menlo,'Roboto Mono','DejaVu Sans Mono',monospace" font-size="10" font-weight="400" fill="rgba(235,235,245,0.30)" text-anchor="start" letter-spacing="0.2" xml:space="preserve">de:ad:be:ef:00:11</text>
<rect x="257" y="678" width="4.5" height="5" rx="1.5" ry="1.5" fill="#0A84FF"/>
<rect x="264" y="674.5" width="4.5" height="8.5" rx="1.5" ry="1.5" fill="#0A84FF"/>
<rect x="271" y="671" width="4.5" height="12" rx="1.5" ry="1.5" fill="rgba(120,120,128,0.24)"/>
<rect x="278" y="667.5" width="4.5" height="15.5" rx="1.5" ry="1.5" fill="rgba(120,120,128,0.24)"/>
<text x="359" y="675" font-family="'SF Pro Display','SF Pro Text',-apple-system,'Helvetica Neue',Inter,'Segoe UI',sans-serif" font-size="10" font-weight="600" fill="#0A84FF" text-anchor="end" letter-spacing="0.4" xml:space="preserve">WPA3</text>
<text x="359" y="691" font-family="'SF Pro Display','SF Pro Text',-apple-system,'Helvetica Neue',Inter,'Segoe UI',sans-serif" font-size="11" font-weight="400" fill="rgba(235,235,245,0.30)" text-anchor="end" letter-spacing="0.06" xml:space="preserve">ch 6</text>
<rect x="20" y="716" width="353" height="50" rx="13" ry="13" fill="#FFD60A"/>
<path d="M 122.68 743.04 A 3.40 3.40 0 0 1 128.57 743.04" fill="none" stroke="#FFFFFF" stroke-width="1.35" stroke-linecap="round" stroke-linejoin="round"/>
<path d="M 120.32 741.68 A 6.12 6.12 0 0 1 130.93 741.68" fill="none" stroke="#FFFFFF" stroke-width="1.35" stroke-linecap="round" stroke-linejoin="round"/>
<path d="M 117.97 740.32 A 8.84 8.84 0 0 1 133.28 740.32" fill="none" stroke="#FFFFFF" stroke-width="1.35" stroke-linecap="round" stroke-linejoin="round"/>
<circle cx="125.625" cy="745.42" r="0.85" fill="#FFFFFF"/>
<line x1="118.485" y1="733.86" x2="132.765" y2="748.14" stroke="#FFFFFF" stroke-width="1.6875" stroke-linecap="butt"/>
<text x="206.5" y="746" font-family="'SF Pro Display','SF Pro Text',-apple-system,'Helvetica Neue',Inter,'Segoe UI',sans-serif" font-size="15" font-weight="600" fill="#FFFFFF" text-anchor="start" letter-spacing="0.1" xml:space="preserve">Deauth Selected</text>
</svg>
